<svg width="44" height="12" viewBox="0 0 44 12" fill="none" xmlns="http://www.w3.org/2000/svg">
<mask id="mask0" mask-type="alpha" maskUnits="userSpaceOnUse" x="0" y="0" width="44" height="12">
<rect width="44" height="12" fill="white"/>
</mask>
<g mask="url(#mask0)">
<path d="M954.5 7.41L44 7.91L26 0.910004H16L6 5.91L1 7.91L-52 8.91L-125 8.62L-124.5 25.91H954.5V7.41Z" fill="white"/>
<path d="M-125 9.75V8.75C-108.18 8.75 -99.61 8.66 -91.31 8.58C-83.01 8.5 -74.31 8.41 -57.31 8.4C-44.64 8.4 -38 8.08 -31.6 7.76C-24.54 7.42 -17.86 7.1 -3.8 7.24C3.2 7.32 3.73999 7 8.78999 3.98L11.32 2.49C20.07 -2.61 30.56 1.63 31.73 2.13C35.9304 3.84327 39.4653 7.11501 44 7.24L57.7 5C238.61 5.56 595.63 6.5 954 6.5V7.5C595.63 7.5 238.61 6.56 57.69 6L44 8.33C39.3314 8.20381 35.664 4.90491 31.34 3.14C27.27 1.4 18.58 -0.499997 11.82 3.44L9.31 4.93C4.14999 8.01 3.49001 8.4 -3.81 8.33C-17.81 8.19 -24.5 8.51 -31.55 8.85C-37.97 9.17 -44.62 9.49 -57.35 9.49C-74.35 9.49 -82.97 9.58 -91.3 9.67C-99.63 9.76 -108.17 9.75 -125 9.75Z" fill="#CF9C2A"/>
<path d="M23.11 12C19.18 12 15.46 10.13 15.46 8.15C15.46 6.17 19.04 3.24 23.11 3.24C27.02 3.24 31.55 6.24 31.55 8.15C31.55 10.06 26.83 12 23.11 12ZM23.11 4.24C19.41 4.24 16.46 7.05 16.46 8.15C16.46 9.25 19.46 11 23.11 11C26.87 11 30.55 9.2 30.55 8.15C30.55 7.1 26.85 4.22 23.11 4.22V4.24Z" fill="#CF9C2A"/>
</g>
</svg>
