<svg xmlns="http://www.w3.org/2000/svg" width="173.162" height="194.437" viewBox="0 0 173.162 194.437"><g transform="translate(-397.995 -230.122)"><path d="M570.877,274.735l-85.834-44.427-.033-.039a.551.551,0,0,0-.4-.147.211.211,0,0,0-.042.009.49.49,0,0,0-.234.059l-86.059,44.545a.518.518,0,0,0,.237.978c.02,0,.039,0,.059,0l4.581-.505V284.9a.519.519,0,0,0,.172.389.538.538,0,0,0,.4.13l4.945-.552V411.151a.515.515,0,0,0,.347.49,227.418,227.418,0,0,0,151.112,0,.519.519,0,0,0,.347-.49V284.844l4.942.572a.361.361,0,0,0,.059,0,.532.532,0,0,0,.347-.133A.519.519,0,0,0,566,284.9V275.2l4.581.505c.019,0,.039,0,.056,0a.518.518,0,0,0,.24-.978m-86.248-43.347,26.251,28.287,8.836,9.517-35.138-.206h-.005l-35.132.206Zm-81.013,42.721h0c-.017,0-.037,0-.054.005l-2.329.257,80.979-41.909-34.218,36.761ZM559.44,410.784a226.435,226.435,0,0,1-149.729,0V368.272q26.049,1.3,52.306,1.672v44.934a.52.52,0,0,0,.522.519h44.076a.518.518,0,0,0,.519-.519V369.944q26.252-.393,52.306-1.672ZM409.711,367.235V324.486q26.049-1.295,52.306-1.674v46.1q-26.252-.4-52.306-1.672M506.1,321.76v92.6H463.057V282.876H506.1m53.344,84.359q-26.049,1.295-52.306,1.672v-46.1q6.242.1,12.474.239.821.021,1.641.04,5.556.135,11.1.3,2.422.081,4.851.169c2.791.1,5.585.189,8.376.3q6.934.279,13.859.62Zm0-43.789q-6.919-.347-13.854-.62-4.189-.165-8.386-.3c-1.616-.056-3.234-.116-4.852-.166q-5.535-.174-11.085-.3l-1.663-.042q-6.229-.139-12.463-.237h0V282.357a.52.52,0,0,0-.519-.521H462.539a.522.522,0,0,0-.522.521v39.417q-26.252.393-52.306,1.672v-38.7l39.84-4.465H521.1l23.855,2.762,14.488,1.681Zm6.179-49.329c-.025-.005-.054-.005-.082-.008a.393.393,0,0,0-.082-.009l-44.293-4.877-34.027-36.665,80.784,41.813Z" fill="#363637"/><path d="M497.479,288.8H471.67a.521.521,0,0,0-.518.519V406.469a.522.522,0,0,0,.518.522h25.809a.522.522,0,0,0,.522-.522V289.316a.522.522,0,0,0-.522-.519m-25.287,1.04h24.769V405.95H472.192V321.637" fill="#363637"/><rect width="26.533" height="1.04" transform="translate(471.176 340.837)" fill="#363637"/><rect width="26.533" height="1.04" transform="translate(471.176 349.536)" fill="#363637"/><rect width="1.159" height="19.429" transform="translate(466.417 335.993)" fill="#363637"/><rect width="0.357" height="128.938" transform="translate(414.269 284.121)" fill="#363637"/><rect width="0.357" height="131.367" transform="translate(419.664 283.446)" fill="#363637"/><rect width="0.357" height="133.795" transform="translate(425.059 282.503)" fill="#363637"/><rect width="0.357" height="135.549" transform="translate(430.453 282.233)" fill="#363637"/><rect width="0.357" height="137.573" transform="translate(435.848 281.558)" fill="#363637"/><rect width="0.357" height="139.306" transform="translate(441.241 280.766)" fill="#363637"/><rect width="0.357" height="141.166" transform="translate(446.636 279.85)" fill="#363637"/><rect width="0.357" height="142.381" transform="translate(452.031 279.85)" fill="#363637"/><rect width="0.357" height="142.92" transform="translate(457.425 279.85)" fill="#363637"/><rect width="0.357" height="143.461" transform="translate(462.82 279.85)" fill="#363637"/><rect width="0.342" height="9.306" transform="translate(468.23 414.544)" fill="#363637"/><rect width="0.357" height="9.442" transform="translate(473.61 414.544)" fill="#363637"/><rect width="0.357" height="9.981" transform="translate(479.005 414.544)" fill="#363637"/><rect width="0.357" height="9.981" transform="translate(484.397 414.544)" fill="#363637"/><rect width="0.357" height="9.844" transform="translate(489.792 414.544)" fill="#363637"/><rect width="0.357" height="9.442" transform="translate(495.187 414.544)" fill="#363637"/><rect width="0.357" height="9.306" transform="translate(500.582 414.544)" fill="#363637"/><rect width="0.357" height="8.172" transform="translate(505.977 414.544)" fill="#363637"/><rect width="0.342" height="9.306" transform="translate(468.23 272.927)" fill="#363637"/><rect width="0.357" height="9.442" transform="translate(473.61 272.927)" fill="#363637"/><rect width="0.357" height="9.117" transform="translate(479.005 272.927)" fill="#363637"/><rect width="0.357" height="9.117" transform="translate(484.397 272.927)" fill="#363637"/><rect width="0.357" height="9.844" transform="translate(489.792 272.927)" fill="#363637"/><rect width="0.357" height="9.442" transform="translate(495.187 272.927)" fill="#363637"/><rect width="0.357" height="9.306" transform="translate(500.582 272.927)" fill="#363637"/><rect width="0.357" height="9.035" transform="translate(505.977 272.927)" fill="#363637"/><rect width="0.357" height="142.461" transform="translate(511.371 279.85)" fill="#363637"/><rect width="0.357" height="141.788" transform="translate(516.766 279.85)" fill="#363637"/><rect width="0.357" height="140.975" transform="translate(522.161 279.85)" fill="#363637"/><rect width="0.357" height="139.095" transform="translate(527.554 280.517)" fill="#363637"/><rect width="0.357" height="137.383" transform="translate(532.949 281.154)" fill="#363637"/><rect width="0.357" height="135.765" transform="translate(538.344 281.694)" fill="#363637"/><rect width="0.357" height="133.74" transform="translate(543.738 282.503)" fill="#363637"/><rect width="0.357" height="131.716" transform="translate(549.133 282.908)" fill="#363637"/><rect width="0.357" height="129.018" transform="translate(554.528 283.851)" fill="#363637"/></g></svg>