<svg xmlns="http://www.w3.org/2000/svg" viewBox="0 0 875.53 362.05"><defs><style>.cls-1{fill:#cf9c2a;}.cls-2{fill:#faf4ed;}</style></defs><g id="Layer_2" data-name="Layer 2"><g id="Layer_1-2" data-name="Layer 1"><path class="cls-1" d="M126.6,114.18V54.37c0-31,27.47-54.36,61-54.36h4.92c33.54,0,61,23.37,61,54.36v59.81c0,31-27.48,54.37-61,54.37h-4.92c-33.54,0-61-23.38-61-54.37m113.94,1.36V53c0-25.82-20.54-47.57-48.3-47.57h-4.33c-27.77,0-48.3,21.75-48.3,47.57v62.53c0,25.82,20.53,47.3,48.3,47.3h4.33c27.76,0,48.3-21.48,48.3-47.3"/><path class="cls-1" d="M420.16,164.47v1.35h-10.7c-2.89-1.62-6.64-6-6.64-13.58V116.63c0-17.4-13-31-30.08-33.17H329.36v82.36H316.64V2.72h55.8c25.17,0,44,18.22,44,40.24,0,17.12-11.27,32.07-28,37.78,16.78,6.25,27.18,21.47,27.18,37.79v36.15c0,5.17,1.74,8.16,4.63,9.79m-90.8-86.72h38.17c20.25,0,36.15-15.77,36.15-34.52,0-19-15.9-34.8-36.15-34.8H329.36Z"/><path class="cls-1" d="M670.3,73.68c-21.4-9.79-40.2-19.85-40.2-36.16,0-19.3,18.51-32.35,42.8-31.81,25.16,0,42.51,13.05,44.25,35.07h6.36C721.48,14.14,699.79-.27,672.9,0h-3.76c-24.87,0-52,14.14-52,39.42,0,20.94,22.56,32.9,46,43.5,25.74,12,52.63,22.83,52.63,44.3,0,19.58-24,35.89-47.71,35.34h-.27l-.13,0h-3.66c-25.36-.74-42.51-13-44.25-35.06h-6.36c2,26.64,23.2,40.52,50.61,40.77h5.79c30.61-.42,58.41-19.57,58.41-45.39C728.13,98.41,697.19,86.18,670.3,73.68Z"/><polygon class="cls-1" points="12.72 8.16 12.72 85.63 59.82 85.63 59.82 91.07 12.72 91.07 12.72 204.1 0 204.1 0 2.73 91.38 2.73 85.85 8.16 12.72 8.16"/><polygon class="cls-1" points="496.12 8.16 496.12 73.4 542.83 73.4 542.83 78.84 496.12 78.84 496.12 160.12 574.78 160.12 574.78 165.83 483.4 165.83 483.4 2.73 574.78 2.73 569.22 8.16 496.12 8.16"/><polygon class="cls-1" points="754.37 2.72 759.92 8.16 808.44 8.16 808.73 8.16 808.73 204.1 821.17 204.1 821.17 8.16 821.46 8.16 869.98 8.16 875.53 2.72 754.37 2.72"/><rect class="cls-1" x="770.06" y="245.77" width="29.02" height="2.04"/><rect class="cls-1" x="76.46" y="245.77" width="29.01" height="2.04"/><path class="cls-2" d="M172.94,229.91c-9.84,0-13.95,8.51-13.95,16.85s4.11,16.9,13.95,16.9c8.69,0,12-5.9,12.39-11.11h5.21c-.92,9.15-7.41,15.75-17.6,15.75-11.35,0-19.16-9-19.16-21.54s7.81-21.48,19.16-21.48c10.13,0,16.62,6.6,17.6,14.47h-5.21C184.58,235.82,181.57,229.91,172.94,229.91Z"/><path class="cls-2" d="M222.65,246.76c0-12.45,8.11-21.48,20.26-21.48s20.27,9,20.27,21.48-8.11,21.54-20.27,21.54S222.65,259.21,222.65,246.76Zm35.32,0c0-8.92-4.63-16.85-15.06-16.85s-15,7.93-15,16.85,4.63,16.9,15,16.9S258,255.68,258,246.76Z"/><path class="cls-2" d="M295.64,246.76c0-12.45,8.11-21.48,20.26-21.48s20.27,9,20.27,21.48-8.11,21.54-20.27,21.54S295.64,259.21,295.64,246.76Zm35.32,0c0-8.92-4.63-16.85-15.06-16.85s-15,7.93-15,16.85,4.63,16.9,15,16.9S331,255.68,331,246.76Z"/><path class="cls-2" d="M370.19,226.09h16.44c7.59,0,13.43,3.36,13.43,12s-5.84,12.05-13.43,12.05H375.4v17.31h-5.21Zm5.21,19.45h11.81c5.15,0,7.64-2.37,7.64-7.41s-2.49-7.41-7.64-7.41H375.4Z"/><path class="cls-2" d="M459.39,243.75v4.63H438.14v14.48h24.72v4.63H432.93v-41.4h29.23v4.63h-24v13Z"/><path class="cls-2" d="M496.76,226.09h16.79c8.16,0,13.67,4.4,13.67,11.75,0,6-2.84,9.27-7.42,10.43v.11c9.21,1.8,5.85,18.07,8,18.76v.35h-5.61c-1.8-1.74,2.14-16.73-8.34-16.73H502v16.73h-5.21Zm5.21,20h10.36c4.29,0,9.67-.52,9.67-7.7s-5.38-7.7-9.67-7.7H502Z"/><path class="cls-2" d="M567,257.13l-3.64,10.36h-5.39l15.29-41.4H579l15.22,41.4h-5.38l-3.65-10.36Zm16.56-4.64-7.35-21.59h-.11l-7.36,21.59Z"/><path class="cls-2" d="M642.15,229.91c-9.84,0-14,9.09-14,16.85s3,16.9,13.43,16.9c7.41,0,13.49-5.32,13.49-13.08H641.57V246h18.7v21.54H656.8l-1.74-5.85h-.12c-3.13,4.34-7,6.66-13.37,6.66-12,0-18.64-9-18.64-21.54s7.75-21.48,19.22-21.48c10.48,0,16,5.44,17.42,13.32h-5.21C653.15,232.69,648.4,229.91,642.15,229.91Z"/><path class="cls-2" d="M721.74,243.75v4.63H700.49v14.48h24.72v4.63H695.28v-41.4h29.23v4.63h-24v13Z"/><path class="cls-1" d="M338.64,361.78h-16v-.26a5.14,5.14,0,0,0,1.21-.34,2.48,2.48,0,0,0,.93-.65,1.32,1.32,0,0,0,.21-.46,6.94,6.94,0,0,0,.14-.69c0-.26.07-.53.09-.82s0-.57,0-.85,0-.57,0-1,0-.88,0-1.37,0-1,0-1.53v-6.6c0-.32,0-.64,0-1s0-.64-.06-.94a4.61,4.61,0,0,0-.13-.8,1.11,1.11,0,0,0-.24-.5,1.78,1.78,0,0,0-.84-.54,10.83,10.83,0,0,0-1.15-.22V343h14.41l1.78,4.31-.26.13a12.63,12.63,0,0,0-4-3.55,6.59,6.59,0,0,0-1.65-.37,23.79,23.79,0,0,0-2.92-.16c-.37,0-.74,0-1.14,0s-.67.06-.84.09c0,.28-.07.86-.1,1.73s0,1.88,0,3v1.68c0,.45,0,.82,0,1.11s0,.51,0,.66V352h.52l.9,0,1-.06a6.93,6.93,0,0,0,.85-.12,4.54,4.54,0,0,0,1.31-.5,3.1,3.1,0,0,0,.85-.75,4,4,0,0,0,.52-1,11.93,11.93,0,0,0,.35-1.32h.31v8.22h-.31a8.64,8.64,0,0,0-.64-1.72,4.63,4.63,0,0,0-.9-1.33,3.15,3.15,0,0,0-1-.6,4.2,4.2,0,0,0-1.37-.29l-.65,0h-1.72a7.36,7.36,0,0,0-.05,1.07v3.13c0,.28,0,.54,0,.8s0,.46,0,.63q0,.84.09,1.59a2.65,2.65,0,0,0,.3,1.1,1.65,1.65,0,0,0,1.13.53,11.54,11.54,0,0,0,1.93.15l1.13,0c.46,0,1-.06,1.45-.13a5.71,5.71,0,0,0,1.54-.41,5.38,5.38,0,0,0,1.36-.85,8.65,8.65,0,0,0,1.27-1.34,16.86,16.86,0,0,0,1.26-1.92l.29.08Z"/><path class="cls-1" d="M364.13,358.89a4.88,4.88,0,0,1-1.41,1.69,6,6,0,0,1-2.15,1.05,10.71,10.71,0,0,1-2.74.34,13.65,13.65,0,0,1-2.19-.16,8.18,8.18,0,0,1-1.52-.38,5,5,0,0,1-.9-.4,1.22,1.22,0,0,0-.38-.19s-.16.11-.34.32-.33.41-.47.6h-.23l-.08-5.2H352a9.29,9.29,0,0,0,.6,1.38,12.12,12.12,0,0,0,.8,1.25,7.68,7.68,0,0,0,.91,1,4.37,4.37,0,0,0,.93.68,8.52,8.52,0,0,0,1.17.47,4.83,4.83,0,0,0,1.41.23,4.6,4.6,0,0,0,3.14-1.05,3.63,3.63,0,0,0,1.2-2.86,3.14,3.14,0,0,0-.24-1.28,2.89,2.89,0,0,0-.64-1,3.93,3.93,0,0,0-.95-.69,12.52,12.52,0,0,0-1.17-.52c-.42-.16-.79-.29-1.1-.39l-.88-.3-.83-.29c-.29-.09-.63-.22-1-.38a5.42,5.42,0,0,1-2.4-1.78,5.51,5.51,0,0,1-.76-1.36,4.43,4.43,0,0,1-.29-1.58,5.38,5.38,0,0,1,.51-2.43,5,5,0,0,1,1.39-1.7,6,6,0,0,1,2-1,8.57,8.57,0,0,1,2.39-.33,8.85,8.85,0,0,1,2,.2,7.45,7.45,0,0,1,1.37.43,4.13,4.13,0,0,1,.81.43l.3.19c.06,0,.16-.1.33-.31s.32-.42.46-.63h.28v4.83h-.28a11,11,0,0,0-.81-1.71,7.91,7.91,0,0,0-1.15-1.51,5.68,5.68,0,0,0-1.49-1.08,4.09,4.09,0,0,0-1.85-.42,5.1,5.1,0,0,0-1.53.23,3.57,3.57,0,0,0-1.25.71,3.18,3.18,0,0,0-.84,1.16,3.94,3.94,0,0,0-.3,1.58A3,3,0,0,0,355,349a6,6,0,0,0,2.16,1.33l1,.37.9.3.9.3c.3.1.62.21.95.34a6,6,0,0,1,2.75,1.89,5.33,5.33,0,0,1,.46,5.34Z"/><path class="cls-1" d="M395.13,347.9c-.14-.32-.3-.64-.49-1s-.39-.66-.59-.95-.4-.58-.59-.83a3.79,3.79,0,0,0-.49-.56,2.75,2.75,0,0,0-1.19-.69,7.61,7.61,0,0,0-1.63-.2h-3.32c0,.43,0,1,0,1.77s0,1.54,0,2.35V358c0,.5,0,1,0,1.45a1.71,1.71,0,0,0,1.36,1.76,13.08,13.08,0,0,0,1.29.31v.26H381v-.26a8,8,0,0,0,1.31-.26,2.73,2.73,0,0,0,1.22-.86.91.91,0,0,0,.2-.43,5.81,5.81,0,0,0,.1-.68,6.81,6.81,0,0,0,.05-.82c0-.3,0-.58,0-.86s0-.57,0-1,0-.84,0-1.33,0-1,0-1.51V343.67h-3.32a5.92,5.92,0,0,0-1.63.24,3.2,3.2,0,0,0-1.19.73,3.66,3.66,0,0,0-.48.55l-.57.79c-.2.29-.39.6-.58.93a6.27,6.27,0,0,0-.43,1l-.23-.08.78-5,1.11.21a14.09,14.09,0,0,0,1.48.1l1.77,0h8l1.51,0H392a8.48,8.48,0,0,0,1.42-.14c.38-.08.76-.18,1.16-.3l.84,5.09Z"/><path class="cls-1" d="M425.94,355.57a8.53,8.53,0,0,1-1.28,2.56,7.92,7.92,0,0,1-1.88,1.78,10.42,10.42,0,0,1-2.27,1.12,12.25,12.25,0,0,1-2.48.58,17.83,17.83,0,0,1-2.48.17H406v-.26a4.37,4.37,0,0,0,1.26-.34,2.48,2.48,0,0,0,.93-.62,1,1,0,0,0,.2-.44c0-.21.08-.45.11-.71s.06-.54.08-.84,0-.58,0-.86,0-.57,0-1,0-.88,0-1.37,0-1,0-1.53v-7.54a8.14,8.14,0,0,0,0-.88,4.83,4.83,0,0,0-.12-.73,1.27,1.27,0,0,0-.23-.51,2.08,2.08,0,0,0-.94-.65,6.2,6.2,0,0,0-1.23-.26V343h3.16l5,0h1.67c.57,0,1.15,0,1.72.08a14.59,14.59,0,0,1,1.72.26,8.87,8.87,0,0,1,1.7.55,9.47,9.47,0,0,1,2.06,1.2,8,8,0,0,1,1.69,1.74,8.52,8.52,0,0,1,1.15,2.32,10,10,0,0,1,.43,3A11.54,11.54,0,0,1,425.94,355.57Zm-3.21-6.34a9.62,9.62,0,0,0-1.31-2.6,8.61,8.61,0,0,0-2-2,6.08,6.08,0,0,0-2.51-1c-.35-.07-.73-.13-1.15-.18s-.93-.06-1.54-.06h-.68l-.72.05-.65.07a2.37,2.37,0,0,0-.48.08c-.09.85-.14,2-.16,3.52s0,3.28,0,5.35v3.06c0,.9,0,1.65,0,2.22,0,.24,0,.51,0,.79s.06.57.09.84a3.73,3.73,0,0,0,.17.73,1.19,1.19,0,0,0,.28.48,2.33,2.33,0,0,0,1.31.67,8.24,8.24,0,0,0,1.51.14c.43,0,.88,0,1.34-.06a6.41,6.41,0,0,0,1.29-.25,7,7,0,0,0,4.22-3.14,11.07,11.07,0,0,0,1.4-5.76A9.48,9.48,0,0,0,422.73,349.23Z"/><path class="cls-1" d="M477.39,361.39v-.29a3.38,3.38,0,0,0,.72-.07,3.1,3.1,0,0,0,.63-.21,1.47,1.47,0,0,0,.46-.36.75.75,0,0,0,.18-.5V344.23a.75.75,0,0,0-.2-.52,1.32,1.32,0,0,0-.49-.33,2.76,2.76,0,0,0-.67-.2,4.51,4.51,0,0,0-.73-.07v-.29h4.25s0,1.23,0,1.44V360a.73.73,0,0,0,.2.55,1.67,1.67,0,0,0,.53.34,2.43,2.43,0,0,0,.68.18,4.07,4.07,0,0,0,.67.05v.29Z"/><path class="cls-1" d="M506.1,353.83a14.29,14.29,0,0,1-2.72,3.76,17.2,17.2,0,0,1-3.67,2.81,16.31,16.31,0,0,1-3.91,1.65l-.16-.4a18.31,18.31,0,0,0,2.16-1.1,12.08,12.08,0,0,0,2-1.55,14,14,0,0,0,1.8-2.12,16.83,16.83,0,0,0,1.51-2.73,4.84,4.84,0,0,1-1.11.3,8,8,0,0,1-1.13.08,6.14,6.14,0,0,1-2.42-.45,5.38,5.38,0,0,1-1.8-1.21,5.28,5.28,0,0,1-1.13-1.81,6.2,6.2,0,0,1-.4-2.25,6,6,0,0,1,.46-2.32,6.3,6.3,0,0,1,1.26-1.94,6.09,6.09,0,0,1,1.89-1.33,5.62,5.62,0,0,1,2.35-.49,5.39,5.39,0,0,1,2.39.53,6.21,6.21,0,0,1,1.92,1.44,6.93,6.93,0,0,1,1.27,2.1,6.66,6.66,0,0,1,.47,2.51A10,10,0,0,1,506.1,353.83Zm-1.58-7.24a5.46,5.46,0,0,0-.67-1.72,3.83,3.83,0,0,0-1.13-1.23,2.83,2.83,0,0,0-1.62-.47,3.33,3.33,0,0,0-2.68,1.18,4.87,4.87,0,0,0-1,3.28,10.5,10.5,0,0,0,.24,2.2,7.84,7.84,0,0,0,.77,2.05,5,5,0,0,0,1.31,1.52,3,3,0,0,0,1.85.61,3.85,3.85,0,0,0,1-.13,1.55,1.55,0,0,0,.75-.53,5.66,5.66,0,0,0,1.11-2.27,11.47,11.47,0,0,0,.28-2.53A9.19,9.19,0,0,0,504.52,346.59Z"/><path class="cls-1" d="M529.38,353.83a14.25,14.25,0,0,1-2.71,3.76A17.46,17.46,0,0,1,523,360.4a16.38,16.38,0,0,1-3.92,1.65l-.15-.4a17.44,17.44,0,0,0,2.15-1.1,11.69,11.69,0,0,0,2-1.55,13.53,13.53,0,0,0,1.81-2.12,17.62,17.62,0,0,0,1.51-2.73,4.84,4.84,0,0,1-1.11.3,8.12,8.12,0,0,1-1.13.08,6.11,6.11,0,0,1-2.42-.45,5.29,5.29,0,0,1-1.8-1.21,5.16,5.16,0,0,1-1.14-1.81,6.41,6.41,0,0,1-.39-2.25,5.86,5.86,0,0,1,.46-2.32,6.27,6.27,0,0,1,1.25-1.94,6.09,6.09,0,0,1,1.89-1.33,5.69,5.69,0,0,1,2.35-.49,5.36,5.36,0,0,1,2.39.53,6.21,6.21,0,0,1,1.92,1.44,6.76,6.76,0,0,1,1.28,2.1,6.86,6.86,0,0,1,.47,2.51A9.86,9.86,0,0,1,529.38,353.83Zm-1.58-7.24a5.45,5.45,0,0,0-.66-1.72,4,4,0,0,0-1.14-1.23,2.79,2.79,0,0,0-1.62-.47,3.32,3.32,0,0,0-2.67,1.18,4.87,4.87,0,0,0-1,3.28,9.9,9.9,0,0,0,.25,2.2,7.5,7.5,0,0,0,.77,2.05A5,5,0,0,0,523,353.4a3,3,0,0,0,1.85.61,3.71,3.71,0,0,0,1-.13,1.53,1.53,0,0,0,.76-.53,5.66,5.66,0,0,0,1.11-2.27,11.48,11.48,0,0,0,.27-2.53A9.19,9.19,0,0,0,527.8,346.59Z"/><path class="cls-1" d="M552.41,358.82a5.32,5.32,0,0,1-1.23,1.65,5.25,5.25,0,0,1-1.81,1,6.55,6.55,0,0,1-2.22.37,6.18,6.18,0,0,1-1.84-.28,4.94,4.94,0,0,1-1.67-.83,4.33,4.33,0,0,1-1.2-1.36,3.43,3.43,0,0,1-.46-1.76,3.23,3.23,0,0,1,.34-1.49,5.08,5.08,0,0,1,.89-1.26,8.4,8.4,0,0,1,1.21-1.09c.44-.33.88-.64,1.32-.94-.45-.31-.9-.64-1.32-1a8.13,8.13,0,0,1-1.14-1.13,5.22,5.22,0,0,1-.79-1.38,4.54,4.54,0,0,1-.3-1.69,4.18,4.18,0,0,1,.44-1.93,5.42,5.42,0,0,1,1.17-1.55,6,6,0,0,1,1.68-1,5.06,5.06,0,0,1,1.9-.37,6.73,6.73,0,0,1,2.19.32,5.13,5.13,0,0,1,1.64.88,3.9,3.9,0,0,1,1,1.29,3.55,3.55,0,0,1,.36,1.58,3.24,3.24,0,0,1-.32,1.45,5.17,5.17,0,0,1-.88,1.25,8.49,8.49,0,0,1-1.26,1.1c-.48.34-1,.66-1.48,1l1.28.74a7.19,7.19,0,0,1,1.37,1.06,6.25,6.25,0,0,1,1.1,1.43,3.77,3.77,0,0,1,.45,1.86A4.78,4.78,0,0,1,552.41,358.82Zm-2-2.26a4.79,4.79,0,0,0-.92-1.31,7.23,7.23,0,0,0-1.42-1.14,18.07,18.07,0,0,0-1.88-1,3.62,3.62,0,0,0-1,.88,5.28,5.28,0,0,0-.72,1.15,6.43,6.43,0,0,0-.43,1.23,5.72,5.72,0,0,0-.14,1.18,3.92,3.92,0,0,0,1,2.92,3.61,3.61,0,0,0,2.66,1.05,3.34,3.34,0,0,0,1.48-.3,2.74,2.74,0,0,0,1-.77,3.11,3.11,0,0,0,.53-1.06,4,4,0,0,0,.17-1.19A3.93,3.93,0,0,0,550.4,356.56Zm.21-11.08a3.4,3.4,0,0,0-.66-1.16,2.94,2.94,0,0,0-1.07-.78,3.35,3.35,0,0,0-1.45-.29,3.77,3.77,0,0,0-1.25.21,3.4,3.4,0,0,0-1.07.6,2.81,2.81,0,0,0-.74,1,3,3,0,0,0-.28,1.34,3.88,3.88,0,0,0,.41,1.8,5.63,5.63,0,0,0,1,1.4,8.37,8.37,0,0,0,1.34,1.05q.72.45,1.35.81a5.22,5.22,0,0,0,2-1.86,5.39,5.39,0,0,0,.64-2.68A4.61,4.61,0,0,0,550.61,345.48Z"/><circle class="cls-1" cx="450.43" cy="352.37" r="2.58"/></g></g></svg>