<svg xmlns="http://www.w3.org/2000/svg" width="204.93" height="159.588" viewBox="0 0 204.93 159.588"><g transform="translate(-380.209 -1109.176)"><g transform="translate(400.76 1244.362)"><path d="M481.291,1249.964c-35.068,0-66.748-4.879-80.708-12.433a.541.541,0,0,1,.514-.951c13.815,7.473,45.293,12.3,80.194,12.3s66.379-4.829,80.193-12.3a.541.541,0,0,1,.515.951C548.038,1245.085,516.358,1249.964,481.291,1249.964Z" transform="translate(-399.377 -1235.594)" fill="#282928"/><path d="M481.35,1250.946c-35.209,0-67.062-4.923-81.147-12.543a1.464,1.464,0,0,1,1.391-2.577c13.693,7.407,45,12.194,79.757,12.194s66.066-4.786,79.756-12.191a1.464,1.464,0,1,1,1.393,2.575C548.414,1246.023,516.561,1250.946,481.35,1250.946Z" transform="translate(-399.436 -1235.653)" fill="#282928"/></g><g transform="translate(401.637 1112.462)"><g transform="translate(0.361 0.361)"><path d="M553.264,1132.221l.545.049c5.325-1.846,8.138-3.887,8.138-6,0-3.653-8.391-7.089-23.629-9.672s-35.5-4.007-57.049-4.007-41.807,1.424-57.046,4.007-23.628,6.019-23.628,9.672c0,2.115,2.812,4.157,8.137,6l.546-.049.518.162-.576.053a103.118,103.118,0,0,0,15,3.5c15.239,2.583,35.5,4.007,57.046,4.007s41.811-1.424,57.049-4.007a103.122,103.122,0,0,0,15-3.5l-.579-.053Zm-15.721,3.588c-15.031,2.548-35.017,3.951-56.274,3.951s-41.242-1.4-56.27-3.951-23.311-5.937-23.311-9.542,8.279-6.992,23.311-9.542,35.013-3.952,56.27-3.952,41.243,1.4,56.274,3.952,23.306,5.938,23.306,9.542S552.573,1133.26,537.543,1135.809Z" transform="translate(-400.595 -1112.588)" fill="#282928"/></g><path d="M481.292,1140.33c-21.565,0-41.846-1.425-57.106-4.011a103.389,103.389,0,0,1-15.057-3.516l-1.629-.545.071-.007c-4.855-1.826-7.314-3.828-7.314-5.959,0-4.935,13.013-8.177,23.929-10.028,15.259-2.588,35.539-4.012,57.106-4.012s41.851,1.425,57.11,4.012c10.916,1.851,23.928,5.093,23.928,10.028,0,2.131-2.459,4.134-7.315,5.96l.07.006-1.627.545a103.562,103.562,0,0,1-15.057,3.516C523.142,1138.905,502.861,1140.33,481.292,1140.33Zm0-27.172c-21.239,0-41.2,1.4-56.21,3.947-14.623,2.48-23.01,5.828-23.01,9.186s8.387,6.706,23.01,9.186c15.007,2.545,34.969,3.946,56.21,3.946s41.2-1.4,56.213-3.946c14.622-2.479,23.007-5.828,23.007-9.186s-8.385-6.707-23.007-9.186C522.494,1114.56,502.53,1113.157,481.292,1113.157Zm78.516,10.4a3.317,3.317,0,0,1,.032,5.428,2.955,2.955,0,0,0-.032-5.428Zm-157.043.012a2.947,2.947,0,0,0-.033,5.4,3.312,3.312,0,0,1,.033-5.4Z" transform="translate(-400.257 -1112.25)" fill="#282928"/></g><g transform="translate(401.683 1125.836)"><g transform="translate(0.54 1.017)"><path d="M561.707,1238.47V1125.715h-160.9V1238.47" transform="translate(-400.806 -1125.715)" fill="none"/></g><path d="M481.291,1267.691c-35.068,0-66.748-4.88-80.708-12.433a.541.541,0,0,1-.283-.476V1125.6a.54.54,0,1,1,1.081,0v128.857c13.958,7.388,45.246,12.151,79.911,12.151s65.951-4.763,79.909-12.151V1125.3a.541.541,0,0,1,1.082,0v129.48a.544.544,0,0,1-.283.477C548.038,1262.811,516.358,1267.691,481.291,1267.691Z" transform="translate(-400.3 -1124.763)" fill="#282928"/></g><g transform="translate(400.761 1189.654)"><path d="M481.291,1198.78c-35.068,0-66.748-4.879-80.708-12.432a.541.541,0,1,1,.514-.951c13.815,7.474,45.293,12.3,80.194,12.3s66.379-4.829,80.193-12.3a.541.541,0,0,1,.515.951C548.038,1193.9,516.358,1198.78,481.291,1198.78Z" transform="translate(-399.378 -1184.411)" fill="#282928"/><path d="M481.35,1199.763c-35.209,0-67.061-4.923-81.147-12.543a1.465,1.465,0,0,1,1.391-2.578c13.693,7.408,45,12.193,79.757,12.193s66.066-4.785,79.756-12.191a1.464,1.464,0,0,1,1.4,2.574C548.412,1194.84,516.559,1199.763,481.35,1199.763Z" transform="translate(-399.437 -1184.47)" fill="#282928"/></g><g transform="translate(400.759 1136.14)"><path d="M481.291,1148.713c-35.068,0-66.748-4.879-80.708-12.432a.541.541,0,0,1,.514-.951c13.815,7.473,45.293,12.3,80.194,12.3s66.379-4.829,80.193-12.3a.541.541,0,1,1,.515.951C548.038,1143.834,516.358,1148.713,481.291,1148.713Z" transform="translate(-399.376 -1134.343)" fill="#282928"/><path d="M481.35,1149.7c-35.209,0-67.061-4.922-81.147-12.542a1.465,1.465,0,0,1,1.391-2.578c13.693,7.407,45,12.193,79.757,12.193s66.066-4.786,79.756-12.191a1.464,1.464,0,0,1,1.393,2.576C548.413,1144.773,516.56,1149.7,481.35,1149.7Z" transform="translate(-399.436 -1134.403)" fill="#282928"/></g><g transform="translate(410.406 1132.109)"><g transform="translate(144.101 0.268)"><path d="M543.279,1130.961V1258.07l.436-.078V1130.883Z" transform="translate(-543.279 -1130.883)" fill="#282928"/></g><g transform="translate(134.495 3.29)"><path d="M534.292,1133.769V1260.73l.435-.057V1133.71Z" transform="translate(-534.292 -1133.71)" fill="#282928"/></g><g transform="translate(124.888 4.437)"><path d="M525.3,1134.827V1262.5l.435-.043V1134.783Z" transform="translate(-525.304 -1134.783)" fill="#282928"/></g><g transform="translate(115.281 6.13)"><path d="M516.316,1136.4v127.074l.435-.032V1136.367Z" transform="translate(-516.316 -1136.367)" fill="#282928"/></g><g transform="translate(105.674 6.728)"><path d="M507.328,1136.952v127.437l.435-.024V1136.927Z" transform="translate(-507.328 -1136.927)" fill="#282928"/></g><g transform="translate(96.067 7.159)"><path d="M498.34,1137.347v127.911l.435-.017V1137.33Z" transform="translate(-498.34 -1137.33)" fill="#282928"/></g><g transform="translate(86.461 7.439)"><path d="M489.352,1137.6v128.378l.435-.011V1137.592Z" transform="translate(-489.352 -1137.592)" fill="#282928"/></g><g transform="translate(76.854 7.58)"><path d="M480.364,1137.728v128.111l.435,0V1137.724Z" transform="translate(-480.364 -1137.724)" fill="#282928"/></g><g transform="translate(67.247 7.586)"><path d="M471.376,1137.729V1265.7l.435,0V1137.732C471.666,1137.731,471.521,1137.729,471.376,1137.729Z" transform="translate(-471.376 -1137.729)" fill="#282928"/></g><g transform="translate(57.64 7.453)"><path d="M462.388,1137.605v127.9l.436.01v-127.9Z" transform="translate(-462.388 -1137.605)" fill="#282928"/></g><g transform="translate(48.033 7.183)"><path d="M453.4,1137.352v127.6l.436.017v-127.6Z" transform="translate(-453.4 -1137.352)" fill="#282928"/></g><g transform="translate(38.427 6.762)"><path d="M444.413,1136.958v127.679l.435.024V1136.983Z" transform="translate(-444.413 -1136.958)" fill="#282928"/></g><g transform="translate(28.821 6.172)"><path d="M435.425,1136.406V1263.54l.435.032V1136.44Z" transform="translate(-435.425 -1136.406)" fill="#282928"/></g><g transform="translate(19.214 4.887)"><path d="M426.437,1135.2v127.247l.435.043V1135.248Z" transform="translate(-426.437 -1135.204)" fill="#282928"/></g><g transform="translate(9.607 3.154)"><path d="M417.449,1133.583v127.142l.435.057V1133.641Z" transform="translate(-417.449 -1133.583)" fill="#282928"/></g><path d="M408.461,1130.632v127.332l.435.078V1130.71C408.751,1130.684,408.6,1130.659,408.461,1130.632Z" transform="translate(-408.461 -1130.632)" fill="#282928"/></g><g transform="translate(430.083 1195.775)"><g style="isolation:isolate"><g transform="translate(0.541 0.542)"><path d="M515.289,1190.7c-11.147.757-23.235,1.171-35.864,1.171-12.53,0-24.527-.408-35.6-1.154a.68.68,0,0,0-.468.147l-15.723,12.582a.68.68,0,0,0,.351,1.208,526.72,526.72,0,0,0,102.887,0,.68.68,0,0,0,.352-1.208L515.289,1190.7" transform="translate(-427.376 -1190.703)" fill="#282928"/></g><path d="M479.46,1207.751a498.208,498.208,0,0,1-51.5-2.521,1.221,1.221,0,0,1-.633-2.168l15.724-12.581a1.189,1.189,0,0,1,.842-.265c11.367.766,23.333,1.153,35.565,1.153,12.331,0,24.385-.393,35.828-1.17a.534.534,0,0,1,.375.116l15.931,12.747a1.221,1.221,0,0,1-.632,2.168A498.337,498.337,0,0,1,479.46,1207.751Zm-35.647-16.456a.138.138,0,0,0-.084.03l-15.723,12.583a.13.13,0,0,0-.047.147.127.127,0,0,0,.118.1,526.176,526.176,0,0,0,102.771,0,.139.139,0,0,0,.071-.247l-15.767-12.616c-11.4.77-23.411,1.159-35.691,1.159-12.257,0-24.247-.388-35.638-1.156Z" transform="translate(-426.87 -1190.196)" fill="#282928"/></g></g><g transform="translate(392.239 1131.576)"><g transform="translate(0.542 0.541)"><path d="M400.8,1158.61a.99.99,0,0,1-.7-.283l-7.845-7.659a.962.962,0,0,1-.292-.692v-18.362a.983.983,0,0,1,.989-.975H400.8a.983.983,0,0,1,.989.975v26.022a.96.96,0,0,1-.6.895A1,1,0,0,1,400.8,1158.61Zm-7.844-27.232a.244.244,0,0,0-.25.236v18.362a.234.234,0,0,0,.071.165l7.844,7.658a.247.247,0,0,0,.282.051.228.228,0,0,0,.147-.214v-26.022a.244.244,0,0,0-.25-.236Z" transform="translate(-391.971 -1130.639)" fill="#282928"/></g><path d="M400.838,1159.187a1.528,1.528,0,0,1-1.072-.437l-7.845-7.66a1.513,1.513,0,0,1-.456-1.079v-18.362a1.525,1.525,0,0,1,1.531-1.516h7.844a1.524,1.524,0,0,1,1.53,1.516v26.022a1.492,1.492,0,0,1-.931,1.394A1.548,1.548,0,0,1,400.838,1159.187Zm-7.843-28.314a.785.785,0,0,0-.792.776v18.362a.776.776,0,0,0,.233.549l7.845,7.661a.8.8,0,0,0,.87.163.754.754,0,0,0,.479-.713v-26.022a.784.784,0,0,0-.791-.776Zm7.843,27.233a.452.452,0,0,1-.314-.129l-7.959-7.771-.018-.2v-18.362a.441.441,0,0,1,.448-.433h7.844a.441.441,0,0,1,.448.433v26.268l-.27.151A.435.435,0,0,1,400.838,1158.106Zm-7.553-8.228,7.263,7.092v-25.015h-7.263Z" transform="translate(-391.464 -1130.133)" fill="#282928"/></g><g transform="translate(562.209 1131.576)"><g transform="translate(0.541 0.541)"><path d="M551.981,1158.61a1,1,0,0,1-.39-.079.959.959,0,0,1-.6-.895v-26.022a.983.983,0,0,1,.99-.975h7.844a.983.983,0,0,1,.99.975v18.362a.963.963,0,0,1-.293.69l-7.845,7.66A1,1,0,0,1,551.981,1158.61Zm0-27.232a.244.244,0,0,0-.25.236v26.022a.227.227,0,0,0,.146.214.251.251,0,0,0,.283-.051l7.845-7.659a.232.232,0,0,0,.069-.164v-18.362a.244.244,0,0,0-.25-.236Z" transform="translate(-550.991 -1130.639)" fill="#282928"/></g><g transform="translate(0)"><path d="M552.017,1159.187a1.553,1.553,0,0,1-.6-.122,1.493,1.493,0,0,1-.931-1.394v-26.022a1.525,1.525,0,0,1,1.531-1.516h7.844a1.525,1.525,0,0,1,1.531,1.516v18.362a1.52,1.52,0,0,1-.456,1.08l-7.845,7.659A1.528,1.528,0,0,1,552.017,1159.187Zm0-28.314a.785.785,0,0,0-.791.776v26.022a.764.764,0,0,0,.478.713.806.806,0,0,0,.871-.163l7.844-7.66a.771.771,0,0,0,.233-.55v-18.362a.785.785,0,0,0-.791-.776Zm0,27.232a.477.477,0,0,1-.192-.043l-.216-.1-.043-.292v-26.022a.441.441,0,0,1,.448-.433h7.844a.441.441,0,0,1,.448.433v18.515l-.126.147-7.849,7.664A.451.451,0,0,1,552.019,1158.1Zm.289-26.151v25.014l7.262-7.092v-17.922Z" transform="translate(-550.485 -1130.133)" fill="#282928"/></g></g><g transform="translate(380.209 1109.176)"><g transform="translate(0.542 0.542)"><path d="M554.711,1114.745c-19.251-3.264-44.849-5.062-72.074-5.062s-52.818,1.8-72.07,5.062-29.852,7.6-29.852,12.219c0,2.672,3.554,5.252,10.281,7.585l.616.209a100.556,100.556,0,0,0,10.236,2.746l.378-.3,6.362-5.09.4-.316c-3.888-1.605-5.928-3.34-5.928-5.128,0-3.6,8.279-6.992,23.311-9.542s35.013-3.952,56.27-3.952,41.243,1.4,56.274,3.952,23.306,5.938,23.306,9.542c0,1.788-2.038,3.523-5.926,5.128l.4.316,6.362,5.09.378.3a100.9,100.9,0,0,0,10.236-2.745l.617-.211c6.727-2.332,10.281-4.912,10.281-7.585C584.563,1122.349,573.962,1118.01,554.711,1114.745Z" transform="translate(-380.716 -1109.683)" fill="#282928"/></g><path d="M563.328,1138.123l-8.054-6.444.847-.35c3.658-1.511,5.591-3.111,5.591-4.628,0-1.543-2.226-5.51-22.856-9.008-15-2.543-34.953-3.944-56.183-3.944s-41.183,1.4-56.18,3.944c-20.632,3.5-22.86,7.465-22.86,9.008,0,1.517,1.935,3.117,5.593,4.628l.848.35-8.053,6.444-.252-.056a101.166,101.166,0,0,1-10.293-2.761l-.619-.211c-7.066-2.45-10.648-5.173-10.648-8.1,0-6.293,16.48-10.409,30.3-12.752,19.282-3.27,44.909-5.071,72.16-5.071s52.882,1.8,72.165,5.071c13.823,2.343,30.3,6.459,30.3,12.752,0,2.923-3.582,5.647-10.645,8.1l-.62.212a101.7,101.7,0,0,1-10.294,2.761Zm-5.959-6.154,6.231,4.985a99.1,99.1,0,0,0,9.928-2.674l.615-.208c6.485-2.249,9.915-4.694,9.915-7.073,0-2.015-2.866-7.187-29.4-11.686-19.224-3.26-44.788-5.055-71.983-5.055s-52.755,1.795-71.979,5.055c-26.537,4.5-29.4,9.671-29.4,11.686,0,2.378,3.429,4.824,9.917,7.074l.614.208a99.209,99.209,0,0,0,9.926,2.673l6.23-4.985c-3.6-1.619-5.428-3.389-5.428-5.268,0-5,12.921-8.237,23.761-10.075,15.055-2.552,35.071-3.959,56.361-3.959s41.307,1.407,56.364,3.959c10.838,1.839,23.759,5.077,23.759,10.075C562.795,1128.58,560.97,1130.35,557.369,1131.969Z" transform="translate(-380.209 -1109.176)" fill="#282928"/></g></g></svg>