<svg xmlns="http://www.w3.org/2000/svg" width="87.699" height="38.267" viewBox="0 0 87.699 38.267"><g transform="translate(1064.644 12.825)"><path d="M-1064.6-4.435C-1052.392-5-1040.811-2-1028.651-6c4.053-2,6.948-8,11-5,6.37,4,12.739,8,19.687,4,6.948,0,13.9-2,21-1.849" transform="translate(0)" fill="none" stroke="#fff" stroke-miterlimit="10" stroke-width="2"/><path d="M-984.883,2.219c0,1.535-2.273,3.441-4.426,3.441a3.23,3.23,0,0,1-3.1-3.468c0-1.536.943-6.275,3.1-6.275S-984.883.683-984.883,2.219Z" transform="translate(-30.335 -1.219)" fill="none" stroke="#fff" stroke-miterlimit="10" stroke-width="2"/><path d="M-977.165,7.909C-990.431,8-1004.329,8-1017.647,14c-2.9,1-5.212-1-8.107-1-5.212-1-11-5-16.214-6-7.528-1-15.056,0-22.628-.175" transform="translate(-0.001 -2.721)" fill="none" stroke="#fff" stroke-miterlimit="10" stroke-width="2"/><path d="M-977.165,23.357C-985.22,23-993.327,23-1001.433,25c-8.686,2-16.793,6-25.479,4-5.791-2-11-5-16.214-6-6.949-1-14.476,0-21.47-.243" transform="translate(-0.001 -4.982)" fill="none" stroke="#fff" stroke-miterlimit="10" stroke-width="2"/></g></svg>