<svg xmlns="http://www.w3.org/2000/svg" width="192.461" height="175.749" viewBox="0 0 192.461 175.749"><g transform="translate(-1931.44 -232.323)"><path d="M2057.963,337.3H2123.5c.154-1.691.258-3.392.323-5.1h-65.858Z" fill="none"/><rect width="34.534" height="5.099" transform="translate(2010.404 375.966)" fill="none"/><path d="M2057.963,348.285h63.879c.359-1.707.677-3.425.943-5.155h-64.822Z" fill="none"/><path d="M2057.963,326.373h65.909q-.057-2.566-.246-5.1h-65.663Z" fill="none"/><path d="M2123.877,326.739h-65.914v5.1h65.875c.037-1.1.061-2.2.061-3.3C2123.9,327.934,2123.888,327.337,2123.877,326.739Z" fill="none"/><rect width="34.534" height="0.378" transform="translate(2010.404 332.202)" fill="none"/><path d="M2057.963,364.675h58.876q1.023-2.52,1.906-5.1h-60.782Z" fill="none"/><path d="M2057.963,359.212h60.9q.85-2.525,1.565-5.1h-62.467Z" fill="none"/><path d="M2057.963,320.911h65.632q-.2-2.57-.541-5.1h-65.091Z" fill="none"/><path d="M2057.963,353.75h62.563q.689-2.531,1.243-5.1h-63.806Z" fill="none"/><rect width="34.534" height="4.721" transform="translate(2010.404 266.967)" fill="none"/><path d="M2057.963,282.614h54.244q-1.419-2.6-2.99-5.1h-51.254Z" fill="none"/><path d="M2082.684,274.024H2064.76l-.837-1.972h-5.96v5.1h51.024q-1.655-2.607-3.467-5.1h-22Z" fill="none"/><path d="M2076.766,271.624a3.89,3.89,0,0,0,3.886-3.886,3.828,3.828,0,0,0-.2-1.152h-7.382a3.828,3.828,0,0,0-.194,1.152A3.888,3.888,0,0,0,2076.766,271.624Z" fill="none"/><rect width="5.96" height="5.102" transform="translate(2057.963 266.586)" fill="none"/><path d="M2083.522,271.688h21.731q-1.926-2.619-4.02-5.1h-17.711Z" fill="none"/><path d="M1997.378,266.586h-43.27q-2.094,2.481-4.02,5.1h47.29Z" fill="none"/><path d="M1997.378,261.124h-38.293q-2.425,2.465-4.669,5.1h42.962Z" fill="none"/><path d="M2057.963,266.223h5.96l.837-4.769h17.924l.838,4.769h17.4q-2.244-2.633-4.669-5.1h-38.293Z" fill="none"/><path d="M2057.963,299.062h61.314q-.833-2.582-1.806-5.1h-59.508Z" fill="none"/><path d="M2057.963,309.99H2122.1q-.5-2.575-1.147-5.1h-62.992Z" fill="none"/><path d="M2057.963,304.525h62.9q-.664-2.578-1.468-5.1h-61.428Z" fill="none"/><path d="M2057.963,293.6h59.364q-1.023-2.614-2.191-5.155h-57.173Z" fill="none"/><path d="M2057.963,315.45H2123q-.351-2.57-.835-5.1h-64.207Z" fill="none"/><path d="M2057.963,288.079h57.009c-.8-1.73-1.666-3.429-2.569-5.1h-54.44Z" fill="none"/><rect width="34.534" height="3.767" transform="translate(2010.404 381.429)" fill="none"/><path d="M1997.378,272.052h-47.557q-1.813,2.49-3.467,5.1h51.024Z" fill="none"/><rect width="34.534" height="1.536" transform="translate(2010.404 341.23)" fill="none"/><rect width="34.534" height="5.099" transform="translate(2010.404 321.274)" fill="none"/><rect width="34.534" height="5.097" transform="translate(2010.404 315.814)" fill="none"/><rect width="34.534" height="5.155" transform="translate(2010.404 343.13)" fill="none"/><rect width="34.534" height="5.099" transform="translate(2010.404 326.739)" fill="none"/><rect width="34.534" height="5.099" transform="translate(2010.404 370.504)" fill="none"/><rect width="34.534" height="5.099" transform="translate(2010.404 365.041)" fill="none"/><rect width="34.534" height="5.102" transform="translate(2010.404 348.648)" fill="none"/><path d="M2057.963,370.14h56.46q1.207-2.516,2.27-5.1h-58.73Z" fill="none"/><rect width="34.534" height="5.099" transform="translate(2010.404 359.576)" fill="none"/><rect width="34.534" height="5.099" transform="translate(2010.404 354.113)" fill="none"/><rect width="34.534" height="5.099" transform="translate(2010.404 277.514)" fill="none"/><path d="M2057.963,386.526h46.469q1.886-2.493,3.6-5.1h-50.072Z" fill="none"/><path d="M2057.963,381.066h50.316q1.632-2.5,3.107-5.1h-53.423Z" fill="none"/><rect width="34.534" height="5.099" transform="translate(2010.404 272.052)" fill="none"/><rect width="34.534" height="5.097" transform="translate(2010.404 310.353)" fill="none"/><path d="M2057.963,375.6h53.622q1.408-2.51,2.666-5.1h-56.288Z" fill="none"/><rect width="34.534" height="5.099" transform="translate(2010.404 299.426)" fill="none"/><rect width="34.534" height="5.102" transform="translate(2010.404 304.888)" fill="none"/><rect width="34.534" height="5.155" transform="translate(2010.404 288.442)" fill="none"/><rect width="34.534" height="5.102" transform="translate(2010.404 282.977)" fill="none"/><rect width="34.534" height="5.099" transform="translate(2010.404 293.963)" fill="none"/><path d="M2057.963,342.766h64.872q.379-2.536.627-5.1h-65.5Z" fill="none"/><path d="M1998.216,255.661h-33.3q-2.836,2.445-5.478,5.1h37.939Z" fill="none"/><rect width="48.077" height="0.216" transform="translate(2003.632 260.545)" fill="none"/><path d="M2057.963,260.76H2095.9q-2.639-2.654-5.479-5.1h-33.3Z" fill="none"/><path d="M1998.216,255.128h58.909v.167h32.869q-3.148-2.682-6.522-5.094h-111.6q-3.372,2.407-6.521,5.094h32.869Z" fill="none"/><path d="M1997.378,348.648h-63.031v-.363h63.031V343.13h-64.822a96.069,96.069,0,0,0,2.258,10.62h62.564Z" fill="none"/><path d="M1997.378,359.576H1936.6q.879,2.579,1.905,5.1h58.877Z" fill="none"/><path d="M1997.378,365.041h-58.731q1.061,2.583,2.27,5.1h56.461Z" fill="none"/><path d="M1997.378,354.113h-62.467q.711,2.575,1.564,5.1h60.9Z" fill="none"/><path d="M1997.378,321.274h-65.663q-.19,2.532-.246,5.1h65.909Z" fill="none"/><path d="M1997.378,315.814h-65.092q-.335,2.529-.54,5.1h65.632Z" fill="none"/><path d="M1997.378,326.739h-65.914c-.011.6-.022,1.195-.022,1.795,0,1.1.024,2.206.061,3.3h65.875Z" fill="none"/><path d="M1997.378,337.664h-65.5q.244,2.566.626,5.1h64.873Z" fill="none"/><path d="M1997.378,332.2H1931.52c.065,1.707.169,3.408.323,5.1h65.535Z" fill="none"/><path d="M1997.378,375.966h-53.424q1.472,2.6,3.107,5.1h50.317Z" fill="none"/><path d="M1966.724,402.972h121.893q3.015-2.467,5.8-5.155H1960.928Q1963.712,400.5,1966.724,402.972Z" fill="none"/><path d="M2057.125,397.035h-58.909l-.838-4.683H1955.67q2.336,2.634,4.879,5.1h134.243q2.535-2.467,4.878-5.1h-41.707Z" fill="none"/><path d="M2032.7,232.456l-.909-.024c-1.366-.061-2.737-.109-4.121-.109s-2.756.048-4.123.109l-.908.024a95.572,95.572,0,0,0-29.953,6.456h69.967A95.573,95.573,0,0,0,2032.7,232.456Z" fill="none"/><path d="M1997.378,370.5h-56.289q1.256,2.589,2.666,5.1h53.623Z" fill="none"/><path d="M1973.414,407.992l.114.08h108.285l.116-.08c2.153-1.473,4.228-3.032,6.236-4.656H1967.177C1969.186,404.96,1971.26,406.519,1973.414,407.992Z" fill="none"/><path d="M2063.567,239.275h-71.794a96.005,96.005,0,0,0-10.693,5.1h93.18A95.976,95.976,0,0,0,2063.567,239.275Z" fill="none"/><path d="M2074.9,244.738h-94.46q-4.161,2.354-8.056,5.1h110.572Q2079.064,247.1,2074.9,244.738Z" fill="none"/><path d="M1997.378,310.353h-64.207q-.484,2.526-.835,5.1h65.042Z" fill="none"/><path d="M1997.378,386.889h-46.194q2,2.616,4.173,5.1h42.021Z" fill="none"/><path d="M2057.963,391.989h42.02q2.178-2.481,4.172-5.1h-46.192Z" fill="none"/><path d="M1997.378,381.429h-50.073q1.714,2.6,3.6,5.1h46.471Z" fill="none"/><path d="M1997.378,304.888h-62.992q-.641,2.526-1.147,5.1h64.139Z" fill="none"/><path d="M1997.378,288.442H1940.2q-1.168,2.538-2.191,5.155h59.364Z" fill="none"/><path d="M1997.378,282.977h-54.44c-.9,1.673-1.764,3.372-2.569,5.1h57.009Z" fill="none"/><path d="M1997.378,293.963H1937.87q-.974,2.517-1.806,5.1h61.314Z" fill="none"/><path d="M1997.378,277.514h-51.254q-1.57,2.5-2.99,5.1h54.244Z" fill="none"/><path d="M1997.378,299.426H1935.95q-.8,2.52-1.468,5.1h62.9Z" fill="none"/><path d="M2062.653,238.912h-69.967q-.458.18-.913.363h71.794Q2063.111,239.092,2062.653,238.912Z" fill="#292929"/><path d="M2074.26,244.375h-93.18c-.214.119-.427.242-.64.363h94.46C2074.687,244.617,2074.474,244.494,2074.26,244.375Z" fill="#292929"/><path d="M2082.956,249.837H1972.384c-.171.122-.344.242-.516.364h111.6C2083.3,250.079,2083.128,249.959,2082.956,249.837Z" fill="#292929"/><path d="M1997.378,255.295h-32.031c-.144.122-.287.243-.43.366h32.461Z" fill="#292929"/><path d="M2057.125,255.661h33.3c-.142-.123-.286-.244-.429-.366h-32.869Z" fill="#292929"/><path d="M2057.963,261.124h38.293c-.119-.121-.235-.244-.354-.364h-37.939Z" fill="#292929"/><path d="M1997.378,260.76h-37.939c-.119.12-.236.243-.354.364h38.293Z" fill="#292929"/><path d="M1997.378,266.223h-42.962l-.308.363h43.27Z" fill="#292929"/><rect width="5.96" height="0.363" transform="translate(2057.963 266.223)" fill="#292929"/><path d="M2083.522,266.586h17.711l-.308-.363h-17.4Z" fill="#292929"/><path d="M2083.522,272.052h22c-.088-.122-.178-.243-.267-.364h-21.731Z" fill="#292929"/><rect width="5.96" height="0.363" transform="translate(2057.963 271.688)" fill="#292929"/><path d="M1997.378,271.688h-47.29c-.089.121-.179.242-.267.364h47.557Z" fill="#292929"/><rect width="34.534" height="0.363" transform="translate(2010.404 271.688)" fill="#292929"/><path d="M1997.378,277.151h-51.024c-.077.121-.154.242-.23.363h51.254Z" fill="#292929"/><rect width="34.534" height="0.363" transform="translate(2010.404 277.151)" fill="#292929"/><path d="M2057.963,277.514h51.254c-.076-.121-.153-.242-.23-.363h-51.024Z" fill="#292929"/><rect width="34.534" height="0.363" transform="translate(2010.404 282.614)" fill="#292929"/><path d="M2057.963,282.977h54.44c-.066-.121-.13-.243-.2-.363h-54.244Z" fill="#292929"/><path d="M1997.378,282.614h-54.244c-.066.12-.13.242-.2.363h54.44Z" fill="#292929"/><path d="M2057.963,288.442h57.173c-.055-.121-.108-.243-.164-.363h-57.009Z" fill="#292929"/><rect width="34.534" height="0.363" transform="translate(2010.404 288.079)" fill="#292929"/><path d="M1997.378,288.079h-57.009c-.056.12-.109.242-.164.363h57.173Z" fill="#292929"/><path d="M1997.378,293.6h-59.364c-.047.122-.1.244-.144.366h59.508Z" fill="#292929"/><rect width="34.534" height="0.366" transform="translate(2010.404 293.597)" fill="#292929"/><path d="M2057.963,293.963h59.508c-.047-.122-.1-.244-.144-.366h-59.364Z" fill="#292929"/><path d="M2057.963,299.426h61.428c-.038-.121-.075-.243-.114-.364h-61.314Z" fill="#292929"/><rect width="34.534" height="0.363" transform="translate(2010.404 299.062)" fill="#292929"/><path d="M1997.378,299.062h-61.314c-.039.121-.076.243-.114.364h61.428Z" fill="#292929"/><path d="M2057.963,304.888h62.992c-.031-.121-.064-.242-.1-.363h-62.9Z" fill="#292929"/><rect width="34.534" height="0.363" transform="translate(2010.404 304.525)" fill="#292929"/><path d="M1997.378,304.525h-62.9c-.032.121-.065.242-.1.363h62.992Z" fill="#292929"/><rect width="34.534" height="0.363" transform="translate(2010.404 309.99)" fill="#292929"/><path d="M2057.963,310.353h64.207c-.023-.12-.044-.242-.068-.363h-64.139Z" fill="#292929"/><path d="M1997.378,309.99h-64.139c-.024.121-.045.243-.068.363h64.207Z" fill="#292929"/><path d="M1997.378,315.45h-65.042c-.017.121-.033.242-.05.364h65.092Z" fill="#292929"/><rect width="34.534" height="0.363" transform="translate(2010.404 315.45)" fill="#292929"/><path d="M2057.963,315.814h65.091c-.016-.122-.032-.243-.049-.364h-65.042Z" fill="#292929"/><path d="M1997.378,320.911h-65.632c-.01.121-.022.241-.031.363h65.663Z" fill="#292929"/><path d="M2057.963,321.274h65.663c-.009-.122-.021-.242-.031-.363h-65.632Z" fill="#292929"/><rect width="34.534" height="0.363" transform="translate(2010.404 320.911)" fill="#292929"/><path d="M1997.378,326.373h-65.909c0,.122,0,.244-.005.366h65.914Z" fill="#292929"/><path d="M2057.963,326.739h65.914c0-.122,0-.244,0-.366h-65.909Z" fill="#292929"/><rect width="34.534" height="0.366" transform="translate(2010.404 326.373)" fill="#292929"/><path d="M2057.963,332.2h65.858c0-.121.013-.242.017-.364h-65.875Z" fill="#292929"/><path d="M1997.378,331.838H1931.5c0,.122.013.243.017.364h65.858Z" fill="#292929"/><rect width="34.534" height="0.363" transform="translate(2010.404 331.838)" fill="#292929"/><path d="M2057.963,337.664h65.5c.011-.121.025-.242.036-.363h-65.535Z" fill="#292929"/><path d="M1997.378,337.3h-65.535c.011.121.025.242.036.363h65.5Z" fill="#292929"/><path d="M2057.963,343.13h64.822c.018-.121.032-.243.05-.364h-64.872Z" fill="#292929"/><rect width="34.534" height="0.363" transform="translate(2010.404 342.766)" fill="#292929"/><path d="M1997.378,342.766h-64.873c.018.121.033.243.051.364h64.822Z" fill="#292929"/><rect width="34.534" height="0.363" transform="translate(2010.404 348.285)" fill="#292929"/><rect width="63.031" height="0.363" transform="translate(1934.347 348.285)" fill="#292929"/><path d="M2057.963,348.648h63.806c.026-.121.048-.243.073-.363h-63.879Z" fill="#292929"/><path d="M1997.378,353.75h-62.564c.033.121.064.242.1.363h62.467Z" fill="#292929"/><path d="M2057.963,354.113h62.467c.033-.121.063-.242.1-.363h-62.563Z" fill="#292929"/><rect width="34.534" height="0.363" transform="translate(2010.404 353.75)" fill="#292929"/><path d="M1997.378,359.212h-60.9c.041.121.08.243.121.364h60.782Z" fill="#292929"/><path d="M2057.963,359.576h60.782c.041-.121.079-.243.12-.364h-60.9Z" fill="#292929"/><rect width="34.534" height="0.363" transform="translate(2010.404 359.212)" fill="#292929"/><path d="M1997.378,364.675H1938.5c.049.122.1.244.146.366h58.731Z" fill="#292929"/><path d="M2057.963,365.041h58.73c.05-.122.1-.244.146-.366h-58.876Z" fill="#292929"/><rect width="34.534" height="0.366" transform="translate(2010.404 364.675)" fill="#292929"/><path d="M2057.963,370.5h56.288c.059-.121.114-.243.172-.364h-56.46Z" fill="#292929"/><rect width="34.534" height="0.363" transform="translate(2010.404 370.14)" fill="#292929"/><path d="M1997.378,370.14h-56.461c.058.121.113.243.172.364h56.289Z" fill="#292929"/><path d="M1997.378,375.6h-53.623c.067.12.131.243.2.363h53.424Z" fill="#292929"/><path d="M2057.963,375.966h53.423c.068-.12.132-.243.2-.363h-53.622Z" fill="#292929"/><rect width="34.534" height="0.363" transform="translate(2010.404 375.603)" fill="#292929"/><path d="M2057.963,381.429h50.072c.08-.122.164-.241.244-.363h-50.316Z" fill="#292929"/><rect width="34.534" height="0.363" transform="translate(2010.404 381.066)" fill="#292929"/><path d="M1997.378,381.066h-50.317c.079.122.163.241.244.363h50.073Z" fill="#292929"/><path d="M2057.963,386.889h46.192c.093-.121.186-.242.277-.363h-46.469Z" fill="#292929"/><path d="M1997.378,386.526h-46.471l.277.363h46.194Z" fill="#292929"/><path d="M2057.963,392.352h41.707c.106-.12.208-.243.313-.363h-42.02Z" fill="#292929"/><path d="M1997.378,391.989h-42.021c.1.12.207.243.313.363h41.708Z" fill="#292929"/><path d="M1960.928,397.817h133.485c.127-.122.253-.243.379-.366H1960.549C1960.674,397.574,1960.8,397.7,1960.928,397.817Z" fill="#292929"/><path d="M1967.177,403.336h120.988c.15-.122.3-.241.452-.364H1966.724C1966.874,403.1,1967.026,403.214,1967.177,403.336Z" fill="#292929"/><path d="M2022.639,232.457a96.2,96.2,0,0,0-49.225,175.536l.114.079h108.285l.116-.079A96.2,96.2,0,0,0,2032.7,232.457m-.909-.027c-1.366-.058-2.74-.106-4.121-.106s-2.756.048-4.123.106M2073.9,407.164h-92.451a91.2,91.2,0,0,1,41.194-169.688q.454-.024.908-.038c1.367-.063,2.74-.107,4.123-.107s2.755.044,4.121.107q.454.014.909.038a91.2,91.2,0,0,1,41.2,169.688" fill="#292929"/><path d="M2063.787,274.932h19.741V260.545h-19.741Zm.908-13.479h17.924v12.57H2064.7Z" fill="#292929"/><path d="M2076.7,263.854a3.884,3.884,0,1,0,3.886,3.886,3.891,3.891,0,0,0-3.886-3.886m0,6.863a2.979,2.979,0,1,1,2.977-2.977,2.982,2.982,0,0,1-2.977,2.977" fill="#292929"/><path d="M1997.307,397.943h60.727V254.222h-60.727Zm.908-142.815h58.91V397.035h-58.91Z" fill="#292929"/><path d="M2003.632,391.616h48.077V260.545h-48.077Zm.908-130.163H2050.8V390.71H2004.54Z" fill="#292929"/><path d="M2009.565,332.58h36.208V266.967h-36.208Zm.906-64.707h34.394v63.8h-34.394Z" fill="#292929"/><path d="M2009.565,385.2h36.208V341.23h-36.208Zm.906-43.06h34.394v42.152h-34.394Z" fill="#292929"/></g></svg>