<svg xmlns="http://www.w3.org/2000/svg" xmlns:xlink="http://www.w3.org/1999/xlink" width="230.788" height="170.893" viewBox="0 0 230.788 170.893"><defs><clipPath id="a"><path d="M868.481,1248.466l60.477-121.833,89.672,35.763-60.477,121.833Z" fill="none"/></clipPath></defs><g transform="translate(-868.481 -1113.336)"><g style="isolation:isolate"><g clip-path="url(#a)"><path d="M911.412,1264.316l0,.005q1.158.567,2.372,1.054c-.777-.31-1.572-.665-2.369-1.059m4.864,1.939c-.86-.266-1.688-.558-2.467-.869.814.325,1.634.614,2.464.875l0-.006m-10.244-5.246v0a32.79,32.79,0,0,0,4.428,2.823v0a33.206,33.206,0,0,1-4.428-2.823m16.583,6.614a36.163,36.163,0,0,1-5.3-1.058l0,0a35.668,35.668,0,0,0,5.3,1.058v0m-21.4-11.05v0a34.115,34.115,0,0,0,3.958,3.768l0,0a34.332,34.332,0,0,1-3.959-3.768m28.3,11.286a40.328,40.328,0,0,1-5.771-.112v0a40.16,40.16,0,0,0,5.771.112v0m-32.488-16.988,0,0a37.364,37.364,0,0,0,3.432,4.83v0a37.843,37.843,0,0,1-3.431-4.83m40.019,15.961a46.989,46.989,0,0,1-6.3.949v0a46.454,46.454,0,0,0,6.3-.948v0m-43.456-23.176a43.554,43.554,0,0,0,2.793,6.111l0,0a43.836,43.836,0,0,1-2.795-6.108m51.737,20.633a55.328,55.328,0,0,1-6.935,2.228v0a55.443,55.443,0,0,0,6.936-2.231M891.17,1234.4l0,.006a52.265,52.265,0,0,0,1.93,7.848l0-.005a51.979,51.979,0,0,1-1.93-7.849m63.454,25.307a66.37,66.37,0,0,1-7.8,3.969l0,.006a66.5,66.5,0,0,0,7.8-3.969l0-.006m-63.963-29.095,0,.018,0-.018m-.266-8.791v0a65.012,65.012,0,0,0,.255,8.663,65.135,65.135,0,0,1-.254-8.666m75.171,29.98a78.5,78.5,0,0,1-9.233,6.864,78.293,78.293,0,0,0,9.232-6.862v0m21.962-28.467a93.215,93.215,0,0,1-19.819,26.551l0,.009a92.682,92.682,0,0,0,19.823-26.56m-88.247-35.2a84.979,84.979,0,0,0-8.737,30.983l0-.006a85.51,85.51,0,0,1,8.734-30.977m20.125-27.16a92.72,92.72,0,0,0-19.826,26.56,93.254,93.254,0,0,1,19.821-26.552l.005-.008m77.16,30.773,0,.009a85.486,85.486,0,0,1-8.735,30.972,84.937,84.937,0,0,0,8.739-30.981m-65.79-39.541a77.787,77.787,0,0,0-9.232,6.861,78.324,78.324,0,0,1,9.232-6.861m65.444,26.1a63.982,63.982,0,0,1,.5,10.741,63.617,63.617,0,0,0-.5-10.741m-55.935-31.117a66.2,66.2,0,0,0-7.795,3.966l0,.006a65.848,65.848,0,0,1,7.795-3.966l0-.006m53.726,21.427,0,.006a52.273,52.273,0,0,1,1.932,7.846l0-.006a52.145,52.145,0,0,0-1.932-7.846m-45.3-24.271a55.147,55.147,0,0,0-6.934,2.231,55.564,55.564,0,0,1,6.933-2.228v0m42.007,16.753v0a43.624,43.624,0,0,1,2.8,6.109,43.3,43.3,0,0,0-2.8-6.112m-34.359-18.016a46.823,46.823,0,0,0-6.3.946l0,.006a46.88,46.88,0,0,1,6.3-.949l0,0m30.288,12.08,0,0a37.735,37.735,0,0,1,3.432,4.829l0-.005a37.855,37.855,0,0,0-3.433-4.827m-23.286-12.046a40.319,40.319,0,0,0-5.772-.116l0,.005a40.647,40.647,0,0,1,5.773.113l0,0m18.57,7.406v0a34.382,34.382,0,0,1,3.957,3.767l0-.006a34.252,34.252,0,0,0-3.958-3.764m-12.137-6.227a36.068,36.068,0,0,0-5.3-1.056l0,0a36,36,0,0,1,5.3,1.059l0-.006m6.853,2.733,0,.006a33.071,33.071,0,0,1,4.425,2.821l0,0a33.012,33.012,0,0,0-4.425-2.824m-3.353-1.55q-1.218-.484-2.462-.874v0c.858.27,1.688.562,2.463.871m.038.016c.786.313,1.56.66,2.362,1.053l0,0c-.769-.379-1.555-.727-2.364-1.05" fill="#c98919"/><path d="M913.781,1265.375q-1.217-.484-2.372-1.054l0-.005c.8.394,1.592.749,2.369,1.059m.028.011c.779.311,1.607.6,2.467.869l0,.006c-.83-.261-1.65-.55-2.464-.875m-3.35-1.551a32.79,32.79,0,0,1-4.428-2.823v0a33.206,33.206,0,0,0,4.428,2.823v0m6.853,2.733,0,0a36.163,36.163,0,0,0,5.3,1.058v0a35.668,35.668,0,0,1-5.3-1.058m-12.139-6.224a34.115,34.115,0,0,1-3.958-3.768v0a34.332,34.332,0,0,0,3.959,3.768l0,0m18.571,7.406v0a40.328,40.328,0,0,0,5.771.112v0a40.16,40.16,0,0,1-5.771-.112M900.458,1255.7a37.364,37.364,0,0,1-3.432-4.83l0,0a37.843,37.843,0,0,0,3.431,4.83v0m30.288,12.079v0a46.989,46.989,0,0,0,6.3-.949v0a46.454,46.454,0,0,1-6.3.948m-34.362-18.016a43.554,43.554,0,0,1-2.793-6.111,43.836,43.836,0,0,0,2.795,6.108l0,0m42.008,16.753v0a55.328,55.328,0,0,0,6.935-2.228,55.443,55.443,0,0,1-6.936,2.231m-45.3-24.271a52.265,52.265,0,0,1-1.93-7.848l0-.006a51.979,51.979,0,0,0,1.93,7.849l0,.005m53.727,21.428,0-.006a66.37,66.37,0,0,0,7.8-3.969l0,.006a66.5,66.5,0,0,1-7.8,3.969m-56.161-33.052,0-.018,0,.018m-.014-.143a65.012,65.012,0,0,1-.255-8.663v0a65.135,65.135,0,0,0,.254,8.666m65.684,28.178a78.5,78.5,0,0,0,9.233-6.864v0a78.293,78.293,0,0,1-9.232,6.862m11.372-8.771,0-.009a93.215,93.215,0,0,0,19.819-26.551,92.682,92.682,0,0,1-19.823,26.56m-77.161-30.773a84.979,84.979,0,0,1,8.737-30.983,85.51,85.51,0,0,0-8.734,30.977l0,.006m8.857-31.225.012-.023-.012.023m88.248,35.2.012-.023-.012.023m-88.233-35.224.014-.029-.014.029m88.248,35.195.014-.029-.014.029m-88.234-35.224.013-.026-.013.026m88.248,35.195.013-.026-.013.026M899.446,1187.8l.013-.026-.013.026M987.694,1223l.013-.026-.013.026m-88.114-35.463a92.72,92.72,0,0,1,19.826-26.56l-.005.008a93.254,93.254,0,0,0-19.821,26.552m88.247,35.194a85.486,85.486,0,0,0,8.735-30.972l0-.009a84.937,84.937,0,0,1-8.739,30.981m-68.133-61.476.51-1.027c.2-.181.4-.36.6-.537l-.492.992c-.208.188-.414.38-.622.572m76.448,30.489c.02-.266.042-.532.058-.8l.493-.992c-.013.252-.025.508-.041.762l-.51,1.027m-74.6-32.674a77.787,77.787,0,0,1,9.232-6.861,78.324,78.324,0,0,0-9.232,6.861m75.171,29.98a63.982,63.982,0,0,0-.5-10.741,63.617,63.617,0,0,1,.5,10.741m-65.674-36.513.371-.749c.163-.1.326-.2.488-.3l-.373.751c-.162.1-.326.2-.486.3m64.73,25.816c-.025-.177-.051-.351-.077-.525l.373-.751c.026.174.051.351.076.527l-.372.749m-63.284-27.189,0-.006a66.2,66.2,0,0,1,7.795-3.966l0,.006a65.848,65.848,0,0,0-7.795,3.966m63.454,25.307a52.273,52.273,0,0,0-1.932-7.846l0-.006a52.145,52.145,0,0,1,1.932,7.846l0,.006m-55.42-28.893.318-.641.424-.175-.314.632-.428.184m53.013,21.143c-.045-.136-.09-.272-.137-.409l.314-.633c.048.134.1.268.141.4l-.318.641m-51.753-22.142a55.147,55.147,0,0,1,6.934-2.231v0a55.564,55.564,0,0,0-6.933,2.228m51.737,20.634a43.624,43.624,0,0,0-2.8-6.109v0a43.3,43.3,0,0,1,2.8,6.112m-44.59-22.433.282-.569c.127-.029.256-.061.385-.089l-.282.568c-.131.032-.258.061-.385.09m41.3,16.47c-.061-.1-.124-.209-.183-.316l.282-.569c.063.1.122.212.183.316l-.282.569m-40.163-17.213,0-.006a46.823,46.823,0,0,1,6.3-.946l0,0a46.88,46.88,0,0,0-6.3.949m40.02,15.96a37.735,37.735,0,0,0-3.432-4.829l0,0a37.855,37.855,0,0,1,3.433,4.827l0,.005m-33.534-16.428.261-.525c.117-.009.234-.018.352-.023l-.261.525c-.119.008-.235.014-.352.023m29.577,11.8c-.071-.084-.143-.165-.214-.249l.261-.525c.072.081.143.165.214.249l-.261.525M957.59,1143l0-.005a40.319,40.319,0,0,1,5.772.116l0,0a40.647,40.647,0,0,0-5.773-.113m28.3,11.287a34.382,34.382,0,0,0-3.957-3.767v0a34.252,34.252,0,0,1,3.958,3.764l0,.006m-22.368-10.641.249-.5c.107.011.215.026.32.04l-.246.5-.323-.035m17.86,7.123-.243-.19.246-.5c.083.06.165.121.246.184l-.249.5m-5.824-3.085.241-.486.269.138-.24.483a32.755,32.755,0,0,1,5.006,3.2l.061.048.244-.492.243.19-.245.494a33.937,33.937,0,0,1,4.429,4.254l.089.1.254-.513c.071.084.143.165.214.249l-.255.514a37,37,0,0,1,3.792,5.417l.108.185.272-.547c.059.107.122.212.183.316l-.273.55a43.087,43.087,0,0,1,3.039,6.815l.1.305.3-.608c.047.137.092.273.137.409l-.3.608a52.185,52.185,0,0,1,2.037,8.722l.07.491.355-.714c.026.174.052.348.077.525l-.359.724a63.7,63.7,0,0,1,.359,11.987l-.055.792-.006.078.49-.987c-.016.265-.038.531-.058.8l-.5,1a84.54,84.54,0,0,1-8.679,30,91.968,91.968,0,0,1-19.056,25.868l-.5,1-.509,1.026c-.2.181-.4.358-.605.538l.493-.992.49-.988-.062.057-.618.567a77.879,77.879,0,0,1-10.175,7.785l-.36.725-.371.748c-.163.1-.325.2-.486.3l.371-.749.355-.714-.453.279a65.791,65.791,0,0,1-8.592,4.484l-.3.611-.318.641-.426.174.315-.635.3-.608-.324.137a54.951,54.951,0,0,1-7.683,2.538l-.272.548-.283.571c-.127.029-.256.062-.385.09l.284-.571.27-.545-.225.052a46.451,46.451,0,0,1-7.029,1.1l-.255.513-.26.525-.35.024.261-.525.255-.514-.145.009a40.007,40.007,0,0,1-6.492-.1l-.245.493-.247.5c-.107-.011-.213-.025-.32-.037l.247-.5.245-.494-.08-.01a35.525,35.525,0,0,1-6.008-1.185l-.24.483-.24.485-.295-.087.241-.484.241-.486-.024-.008c-.989-.3-1.941-.624-2.827-.978s-1.8-.768-2.705-1.228l-.021-.01-.241.486-.241.484-.268-.138.24-.485.24-.483a32.576,32.576,0,0,1-5.005-3.207l-.061-.046-.245.494-.247.5c-.081-.063-.165-.125-.246-.189l.248-.5.245-.494a33.86,33.86,0,0,1-4.425-4.256l-.09-.1-.255.514-.261.525c-.073-.085-.145-.166-.216-.25l.26-.525.255-.513a37.38,37.38,0,0,1-3.792-5.419l-.106-.183-.27.544-.283.572c-.063-.1-.123-.212-.183-.317l.283-.571.272-.548a43.33,43.33,0,0,1-3.042-6.815l-.1-.309-.3.609-.315.636-.139-.4.318-.641.3-.611a51.921,51.921,0,0,1-2.038-8.724l-.072-.484-.353.711-.373.752c-.025-.177-.051-.351-.076-.528l.372-.748.358-.722a64,64,0,0,1-.36-11.991l.057-.79.006-.079-.49.988-.493.992c.014-.255.025-.508.041-.763l.51-1.026.5-1a84.553,84.553,0,0,1,8.678-30.008,91.935,91.935,0,0,1,19.057-25.864l.5-1c.208-.192.414-.384.622-.572l-.49.987.061-.056.617-.568a78.165,78.165,0,0,1,10.178-7.788l.359-.721c.16-.1.324-.2.486-.3l-.353.711.451-.279a66.32,66.32,0,0,1,8.593-4.483l.3-.608.428-.184-.3.611.324-.137a55.064,55.064,0,0,1,7.685-2.538l.273-.55c.127-.029.254-.058.385-.09l-.272.547.223-.052a46.167,46.167,0,0,1,7.028-1.1l.255-.515c.117-.009.233-.015.352-.023l-.254.512.145-.01a40.087,40.087,0,0,1,6.488.1l.245-.494.323.035-.244.493.08.008a35.929,35.929,0,0,1,6.007,1.188l.239-.483.3.087-.241.486.022.007c.994.3,1.945.626,2.829.978s1.78.759,2.7,1.228l.023.011m-11.068-4.447,0,0a36.068,36.068,0,0,1,5.3,1.056l0,.006a36,36,0,0,0-5.3-1.059m16.583,6.613a33.071,33.071,0,0,0-4.425-2.821l0-.006a33.012,33.012,0,0,1,4.425,2.824l0,0m-11.146-4.963.242-.487c.1.029.2.06.294.089l-.241.485-.3-.087m6.141,2.449-.269-.138.24-.485c.09.047.181.09.271.136l-.242.487m-5.234-2.734v0q1.246.389,2.462.874c-.775-.309-1.6-.6-2.463-.871m4.863,1.94c-.8-.393-1.576-.74-2.362-1.053.809.323,1.6.671,2.364,1.05l0,0m-1.9-2.031c-24.724-9.861-58.4,9.446-75.074,43.034s-10.126,68.938,14.6,78.8,58.4-9.444,75.074-43.034,10.124-68.939-14.6-78.8" fill="#c98919"/><path d="M996.2,1190.943l-.49.987L967.283,1249.2l-.49.988c.208-.188.414-.381.621-.572l.5-1,27.735-55.872.5-1c.02-.266.042-.532.058-.8" fill="#c98919"/><path d="M996.693,1189.951l-.493.992c-.016.265-.038.531-.058.8l.51-1.027c.016-.254.028-.51.041-.762" fill="#c98919"/><path d="M967.414,1249.614c-.207.191-.413.384-.621.572l-.493.992c.2-.18.405-.357.605-.538l.509-1.026" fill="#c98919"/><path d="M995.694,1177.824l-.355.714-39.4,79.379-.355.714c.163-.1.323-.2.486-.3l.36-.725,38.984-78.534.359-.724c-.025-.177-.051-.351-.077-.525" fill="#c98919"/><path d="M996.067,1177.073l-.373.751c.026.174.052.348.077.525l.372-.749c-.025-.176-.05-.353-.076-.527" fill="#c98919"/><path d="M956.068,1258.332c-.163.1-.323.2-.486.3l-.371.749c.161-.1.323-.2.486-.3l.371-.748" fill="#c98919"/><path d="M959.764,1236.749a.367.367,0,0,1-.307.034l-.038-.026-12.958,26.106-.3.608c.144-.058.286-.119.429-.18l.3-.611,12.872-25.931" fill="#c98919"/><path d="M993.4,1168.308l-.3.608-33.2,66.875.053.011a.281.281,0,0,1,.146.135l.03.078,33.1-66.69.3-.608c-.045-.136-.09-.272-.137-.409" fill="#c98919"/><path d="M946.588,1263.291c-.143.061-.285.122-.429.18l-.315.635.426-.174.318-.641" fill="#c98919"/><path d="M993.711,1167.675l-.314.633c.047.137.092.273.137.409l.318-.641c-.046-.133-.093-.267-.141-.4" fill="#c98919"/><path d="M990.041,1160.93l-.272.547-51.7,104.154-.27.545c.127-.03.256-.058.384-.09l.272-.548,51.5-103.742.273-.55c-.061-.1-.124-.209-.183-.316" fill="#c98919"/><path d="M938.182,1266.086c-.128.032-.257.06-.384.09l-.284.571c.129-.028.258-.061.385-.09l.283-.571" fill="#c98919"/><path d="M990.323,1160.361l-.282.569c.059.107.122.212.183.316l.282-.569c-.061-.1-.12-.211-.183-.316" fill="#c98919"/><path d="M985.91,1155.112l-.254.513-55.191,111.184-.255.514.349-.024.255-.513,55.055-110.911.255-.514c-.071-.084-.143-.165-.214-.249" fill="#c98919"/><path d="M930.559,1267.3l-.349.024-.261.525.35-.024.26-.525" fill="#c98919"/><path d="M986.171,1154.587l-.261.525c.071.084.143.165.214.249l.261-.525c-.071-.084-.142-.168-.214-.249" fill="#c98919"/><path d="M981.14,1150.583l-.244.492-57.388,115.61-.245.494.32.034.245-.493,57.31-115.453.245-.494-.243-.19" fill="#c98919"/><path d="M923.583,1267.213l-.32-.034-.247.5c.107.012.213.026.32.037l.247-.5" fill="#c98919"/><path d="M981.386,1150.087l-.246.5.243.19.249-.5c-.081-.063-.163-.124-.246-.184" fill="#c98919"/><path d="M975.8,1147.2l-.241.486L917.127,1265.4l-.241.486.294.086.24-.483,58.409-117.667.24-.483-.269-.138" fill="#c98919"/><path d="M976.04,1146.717l-.24.485.269.138.242-.487c-.09-.046-.181-.089-.271-.136" fill="#c98919"/><path d="M917.18,1265.973l-.294-.086-.241.484.295.087.24-.485" fill="#c98919"/><path d="M970.223,1144.978l-.3-.087-.239.483-49.393,99.5a.742.742,0,0,1-.06.171q-.014.029-.03.057a.859.859,0,0,1-.066.086l-8.86,17.849-.24.483.269.139.241-.486,58.432-117.713.241-.486" fill="#c98919"/><path d="M970.464,1144.493c-.1-.029-.2-.06-.294-.089l-.242.487.3.087.241-.485" fill="#c98919"/><path d="M911.04,1263.524l-.24.485.268.138.241-.484-.269-.139" fill="#c98919"/><path d="M963.846,1143.685l-.323-.035-.245.494L905.969,1259.6l-.245.494.245.191.245-.494,57.388-115.61.244-.493" fill="#c98919"/><path d="M964.092,1143.189c-.1-.014-.213-.029-.32-.04l-.249.5.323.035.246-.5" fill="#c98919"/><path d="M905.724,1260.091l-.248.5c.081.064.165.126.246.189l.247-.5-.245-.191" fill="#c98919"/><path d="M956.9,1143.542c-.119.008-.235.014-.352.023l-.255.515-55.055,110.91-.255.513c.071.084.144.165.217.25l.255-.514,55.191-111.185.254-.512" fill="#c98919"/><path d="M900.982,1255.5l-.26.525c.071.084.143.165.216.25l.261-.525c-.073-.085-.146-.166-.217-.25" fill="#c98919"/><path d="M957.16,1143.017c-.118.005-.235.014-.352.023l-.261.525c.117-.009.233-.015.352-.023l.261-.525" fill="#c98919"/><path d="M949.313,1144.686c-.131.032-.258.061-.385.09l-.273.55-51.5,103.742-.272.548c.06.107.12.211.183.316l.27-.544,51.7-104.155.272-.547" fill="#c98919"/><path d="M896.886,1249.616l-.283.571c.06.1.12.212.183.317l.283-.572c-.063-.1-.123-.209-.183-.316" fill="#c98919"/><path d="M949.595,1144.118c-.129.028-.258.06-.385.089l-.282.569c.127-.029.254-.058.385-.09l.282-.568" fill="#c98919"/><path d="M940.949,1147.39l-.428.184-.3.608-33.344,67.174a.587.587,0,0,1,.3-.219.311.311,0,0,1,.147-.008L940.646,1148l.3-.611" fill="#c98919"/><path d="M906.743,1215.62l-12.865,25.917-.3.611c.045.136.09.272.136.405l.3-.609,12.834-25.855a.365.365,0,0,1-.129-.322l0-.01v-.01a.662.662,0,0,1,.022-.127" fill="#c98919"/><path d="M941.263,1146.758l-.424.175-.318.641.428-.184.314-.632" fill="#c98919"/><path d="M893.575,1242.148l-.318.641.139.4.315-.636c-.046-.133-.091-.269-.136-.405" fill="#c98919"/><path d="M931.527,1152.233c-.162.1-.326.2-.486.3l-.359.721-38.986,78.54-.358.722c.022.176.052.348.077.524l.353-.711,39.406-79.385.353-.711" fill="#c98919"/><path d="M891.338,1232.516l-.372.748c.025.177.051.351.076.528l.373-.752c-.025-.176-.055-.348-.077-.524" fill="#c98919"/><path d="M931.9,1151.482c-.162.1-.325.2-.488.3l-.371.749c.16-.1.324-.2.486-.3l.373-.751" fill="#c98919"/><path d="M920.316,1160.679c-.208.188-.414.38-.622.572l-.5,1-27.735,55.872-.5,1c-.02.266-.042.532-.058.8l.49-.988,28.427-57.268.49-.987" fill="#c98919"/><path d="M920.808,1159.687c-.2.177-.4.356-.6.537l-.51,1.027c.208-.192.414-.384.622-.572l.492-.992" fill="#c98919"/><path d="M890.967,1219.125l-.51,1.026c-.016.255-.027.508-.041.763l.493-.992c.016-.265.038-.531.058-.8" fill="#c98919"/><path d="M906.874,1215.356a.717.717,0,0,0-.079.125.671.671,0,0,0-.052.139l.131-.264" fill="#c98919"/><path d="M907.39,1215.142l-.066-.013-.476.96a.216.216,0,0,0,.06.038.337.337,0,0,0,.212.005.653.653,0,0,0,.379-.338.7.7,0,0,0,.078-.272v-.017a.345.345,0,0,0-.188-.363" fill="#c98919"/><path d="M935.113,1247.691a.3.3,0,0,0-.136-.019h-.016a.626.626,0,0,0-.458.363.677.677,0,0,0-.061.174.375.375,0,0,0,.178.45.3.3,0,0,0,.136.019h.016a.629.629,0,0,0,.459-.362.713.713,0,0,0,.06-.175.372.372,0,0,0-.178-.45" fill="#c98919"/><path d="M978.8,1180.994a.388.388,0,0,0-.361.068.714.714,0,0,0-.235.273.6.6,0,0,0-.055.424l0,.015a.3.3,0,0,0,.17.2.393.393,0,0,0,.364-.067.709.709,0,0,0,.233-.273.607.607,0,0,0,.057-.425v0l0-.015a.3.3,0,0,0-.171-.2" fill="#c98919"/><path d="M959.9,1235.791a.45.45,0,0,0-.375.132l-.014.012a.769.769,0,0,0-.173.234.553.553,0,0,0-.025.48.277.277,0,0,0,.107.108l.48-.966" fill="#c98919"/><path d="M960.128,1236.015l-.364.734a.66.66,0,0,0,.124-.086l.009-.007.006-.008a.734.734,0,0,0,.166-.223.618.618,0,0,0,.059-.41" fill="#c98919"/><path d="M943.531,1245.86a.339.339,0,0,0-.239,0l-.012.005a.67.67,0,0,0-.359.336.66.66,0,0,0-.074.294.305.305,0,0,0,.423.332l.021-.006a.669.669,0,0,0,.354-.336.678.678,0,0,0,.076-.3.334.334,0,0,0-.19-.333" fill="#c98919"/><path d="M927.171,1247.2l-.045-.011-.013-.005a.565.565,0,0,0-.557.365c-.008.016-.016.033-.023.05-.1.252-.036.5.143.568l.044.01.008,0,.007,0a.563.563,0,0,0,.555-.365c.008-.017.015-.033.022-.051.1-.252.037-.5-.141-.567" fill="#c98919"/><path d="M975.486,1173.438a.438.438,0,0,0-.452.143.751.751,0,0,0-.141.193.55.55,0,0,0-.02.518l.008.014a.269.269,0,0,0,.134.112.437.437,0,0,0,.45-.14.762.762,0,0,0,.142-.195.552.552,0,0,0,.021-.519l-.009-.013a.289.289,0,0,0-.133-.113" fill="#c98919"/><path d="M970.454,1167.591a.488.488,0,0,0-.532.237.915.915,0,0,0-.057.094.5.5,0,0,0,.036.592l.012.008a.25.25,0,0,0,.074.047.489.489,0,0,0,.533-.239.761.761,0,0,0,.057-.094.494.494,0,0,0-.036-.593h-.005l-.007-.007a.3.3,0,0,0-.075-.044" fill="#c98919"/><path d="M951.96,1241.824a.38.38,0,0,0-.337.05l-.014.008a.726.726,0,0,0-.255.285.608.608,0,0,0-.066.4.294.294,0,0,0,.178.228.378.378,0,0,0,.334-.048l.012-.005.005-.005a.7.7,0,0,0,.256-.284.625.625,0,0,0,.066-.405.3.3,0,0,0-.179-.227" fill="#c98919"/><path d="M977.214,1209.451l-.068-.016a.57.57,0,0,0-.523.348.807.807,0,0,0-.043.1l-.006.018c-.085.244-.018.469.153.537l.066.016a.575.575,0,0,0,.535-.369.781.781,0,0,0,.031-.075l0-.01,0-.012c.085-.244.018-.469-.151-.537" fill="#c98919"/><path d="M967.068,1228.114a.471.471,0,0,0-.511.21l-.013.016a.743.743,0,0,0-.086.138.5.5,0,0,0,.029.558.253.253,0,0,0,.091.061.475.475,0,0,0,.512-.209l0-.006.01-.014a.743.743,0,0,0,.086-.138.5.5,0,0,0-.03-.558.289.289,0,0,0-.091-.058" fill="#c98919"/><path d="M972.941,1219.173l-.019-.008a.519.519,0,0,0-.582.317l-.011.017-.013.025c-.125.256-.085.527.1.617l.02.008a.52.52,0,0,0,.582-.317v-.006l.008-.011.013-.025c.126-.256.083-.528-.1-.617" fill="#c98919"/><path d="M964.193,1163.854l-.014-.006c-.2-.078-.463.076-.6.343s-.079.546.117.624l.013.005a.527.527,0,0,0,.593-.34c.133-.267.083-.548-.114-.626" fill="#c98919"/><path d="M979.7,1199.5a.337.337,0,0,0-.164-.017.64.64,0,0,0-.435.367.7.7,0,0,0-.063.2l0,.016a.362.362,0,0,0,.183.421.311.311,0,0,0,.163.016.636.636,0,0,0,.435-.364.685.685,0,0,0,.064-.2v-.017l0-.006a.364.364,0,0,0-.184-.417" fill="#c98919"/><path d="M980.227,1189.841a.35.35,0,0,0-.261.01.687.687,0,0,0-.335.333.658.658,0,0,0-.072.318v.018a.327.327,0,0,0,.189.3.34.34,0,0,0,.262-.014.674.674,0,0,0,.334-.33.652.652,0,0,0,.072-.318v-.017a.319.319,0,0,0-.189-.305" fill="#c98919"/><path d="M948.432,1162.805a.323.323,0,0,0-.184-.011h-.008l0,0h0l0,0a.643.643,0,0,0-.414.361.719.719,0,0,0-.067.225.354.354,0,0,0,.187.391.321.321,0,0,0,.186.012l.014,0a.645.645,0,0,0,.416-.363.671.671,0,0,0,.064-.223.354.354,0,0,0-.185-.394" fill="#c98919"/><path d="M931.678,1170.757a.4.4,0,0,0-.383.08l-.017.014a.726.726,0,0,0-.212.261.584.584,0,0,0-.047.442.292.292,0,0,0,.164.18.4.4,0,0,0,.382-.081l.016-.011a.74.74,0,0,0,.214-.261.6.6,0,0,0,.049-.444.29.29,0,0,0-.166-.18" fill="#c98919"/><path d="M907.809,1224.469a.362.362,0,0,0-.31.036.709.709,0,0,0-.29.315.629.629,0,0,0-.063.361v.008l0,.011a.31.31,0,0,0,.182.253.367.367,0,0,0,.311-.036.715.715,0,0,0,.292-.318.626.626,0,0,0,.061-.361l0-.015a.306.306,0,0,0-.183-.254" fill="#c98919"/><path d="M924.057,1177.628a.451.451,0,0,0-.472.163l-.008.01-.005.005a.763.763,0,0,0-.121.176.54.54,0,0,0-.009.534.285.285,0,0,0,.123.094.444.444,0,0,0,.472-.163l.011-.013a.753.753,0,0,0,.124-.177.526.526,0,0,0,.006-.532.278.278,0,0,0-.121-.1" fill="#c98919"/><path d="M908.937,1205.264a.289.289,0,0,0-.112-.021.6.6,0,0,0-.481.356.777.777,0,0,0-.057.15v.006l-.005.009v.007a.382.382,0,0,0,.169.477.286.286,0,0,0,.115.022.61.61,0,0,0,.481-.359.791.791,0,0,0,.055-.15l.005-.019a.381.381,0,0,0-.17-.478" fill="#c98919"/><path d="M917.506,1185.986a.5.5,0,0,0-.548.261l0,0-.008.01v0c-.016.024-.029.047-.042.071a.474.474,0,0,0,.056.6l.057.034a.5.5,0,0,0,.549-.261l.011-.017a.729.729,0,0,0,.041-.071.478.478,0,0,0-.054-.6l-.059-.031" fill="#c98919"/><path d="M956.66,1162.17a.306.306,0,0,0-.086-.021h-.018a.587.587,0,0,0-.5.351.8.8,0,0,0-.05.125.394.394,0,0,0,.162.509.316.316,0,0,0,.089.022l.014,0a.588.588,0,0,0,.5-.353.767.767,0,0,0,.05-.126.391.391,0,0,0-.162-.509" fill="#c98919"/><path d="M939.953,1165.727a.365.365,0,0,0-.287.021l-.011.006,0,0a.7.7,0,0,0-.314.324.643.643,0,0,0-.068.341.315.315,0,0,0,.187.279.351.351,0,0,0,.284-.022l.017-.007a.694.694,0,0,0,.311-.324.659.659,0,0,0,.07-.341.316.316,0,0,0-.186-.279" fill="#c98919"/><path d="M912.379,1195.367l-.023,0a.54.54,0,0,0-.574.352l-.012.025-.006.012,0,.009c-.114.26-.056.519.13.594l.022.005a.544.544,0,0,0,.577-.352l.012-.025.009-.017c.114-.261.057-.523-.131-.6" fill="#c98919"/><path d="M920.106,1244.42a.512.512,0,0,0-.565.289c-.01.016-.019.033-.027.049a.46.46,0,0,0,.076.61h0l.011.008.037.018a.469.469,0,0,0,.5-.2l.156-.314a.4.4,0,0,0-.139-.431l-.012-.008-.039-.019" fill="#c98919"/><path d="M914.337,1239.524a.457.457,0,0,0-.494.185.791.791,0,0,0-.1.157.514.514,0,0,0,.008.545l.011.015a.314.314,0,0,0,.106.074.46.46,0,0,0,.494-.186.782.782,0,0,0,.1-.157.515.515,0,0,0-.01-.546l-.01-.011a.256.256,0,0,0-.105-.076" fill="#c98919"/><path d="M910.167,1232.745a.417.417,0,0,0-.409.1.765.765,0,0,0-.192.247.576.576,0,0,0-.037.461l0,.009,0,.008a.283.283,0,0,0,.155.156.409.409,0,0,0,.4-.1.74.74,0,0,0,.193-.249.567.567,0,0,0,.037-.462l-.006-.013a.28.28,0,0,0-.154-.159" fill="#c98919"/><path d="M959.952,1235.8l-.053-.011-.48.966.038.026a.367.367,0,0,0,.307-.034l.364-.734-.03-.078a.281.281,0,0,0-.146-.135" fill="#c98919"/><path d="M920.3,1244.878l-.156.314a.859.859,0,0,0,.066-.086q.016-.028.03-.057a.742.742,0,0,0,.06-.171" fill="#c98919"/><path d="M907.324,1215.129a.311.311,0,0,0-.147.008.587.587,0,0,0-.3.219l-.131.264a.662.662,0,0,0-.022.127v.01l0,.01a.365.365,0,0,0,.129.322l.476-.96" fill="#c98919"/></g></g><path d="M1089.073,1131.863v127.425l.431-.123V1131.74Z" fill="#c98919"/><path d="M1080.157,1261.283l.431-.079V1133.786l-.431.079Z" fill="#c98919"/><path d="M1071.241,1262.677l.43-.058V1135.2l-.43.059Z" fill="#c98919"/><path d="M1062.325,1263.722l.43-.044V1136.265l-.43.044Z" fill="#c98919"/><path d="M1053.408,1264.517l.431-.033V1137.073l-.431.034Z" fill="#c98919"/><path d="M1044.492,1265.114l.431-.025v-127.41l-.431.025Z" fill="#c98919"/><path d="M1035.576,1265.541l.43-.017V1138.116l-.43.017Z" fill="#c98919"/><path d="M1026.66,1265.817l.43-.01V1138.4l-.43.01Z" fill="#c98919"/><path d="M1017.743,1265.952l.431,0V1138.542l-.431,0Z" fill="#c98919"/><path d="M1008.827,1265.953l.43,0V1138.55l-.43,0Z" fill="#c98919"/><path d="M999.911,1265.818l.43.01V1138.423l-.43-.01Z" fill="#c98919"/><path d="M991.139,1162.659c.1.175.189.358.286.535v-25.038l-.431-.016v24.618c.017.03.033.061.049.091Z" fill="#c98919"/><path d="M990.994,1265.543l.431.016v-49.288c-.139.352-.286.7-.431,1.053Z" fill="#c98919"/><path d="M982.509,1137.737l-.431-.024v14.046c.145.121.288.242.431.365Z" fill="#c98919"/><path d="M982.078,1265.116l.431.024v-31.87c-.145.217-.285.437-.431.652Z" fill="#c98919"/><path d="M973.162,1264.518l.43.032v-19.873c-.142.155-.287.305-.43.459Z" fill="#c98919"/><path d="M973.592,1137.15l-.43-.034v9.267c.144.06.287.127.43.189Z" fill="#c98919"/><path d="M964.246,1253.449v10.27l.43.043V1253.1l-.138.114C964.441,1253.3,964.343,1253.372,964.246,1253.449Z" fill="#c98919"/><path d="M964.676,1136.362l-.43-.044v7.665c.143.02.287.04.43.062Z" fill="#c98919"/><path d="M955.329,1262.666l.431.057v-3.345c-.143.086-.287.168-.431.252Z" fill="#c98919"/><path d="M955.76,1135.326l-.431-.058v8.475c.144-.012.288-.032.431-.042Z" fill="#c98919"/><path d="M946.843,1133.939c-.143-.026-.288-.051-.43-.078v11.467c.144-.039.287-.075.43-.113Z" fill="#c98919"/><path d="M937.927,1131.952l-.43-.121v16.75c.144-.066.286-.14.43-.2Z" fill="#c98919"/><path d="M953.334,1261.247c15.856,2.282,36.949,3.539,59.393,3.539h.289c22.558-.011,43.753-1.288,59.678-3.6,23.185-3.361,23.483-7.1,23.484-7.135l-.005-9.087c-3.984,2.415-12.018,4.482-23.953,6.158-15.961,2.24-37,3.474-59.237,3.474-17.542,0-34.324-.77-48.468-2.194a75.5,75.5,0,0,1-12.787,8.6C952.255,1261.087,952.782,1261.167,953.334,1261.247Z" fill="none"/><path d="M938.283,1127.337l4.583,1.109.942.2c1.8.369,3.68.713,5.669,1.039l12.288,1.654,17.121,1.467,26.584,1,7.513.049,28.069-.7,20.794-1.565,12.216-1.523,2.355-.37c2.061-.338,3.945-.682,5.671-1.036.385-.079.7-.146,1.015-.213l6.461-1.66,3.79-1.44.422-.208c-9.734-5.019-43.45-8.709-80.793-8.709s-71.058,3.69-80.793,8.709l2.4,1.032Z" fill="none"/><path d="M967.663,1249.655c12.048,1.115,27.081,1.852,45.32,1.852,56.467,0,82.392-7.04,83.156-10.631l.01-46.112c-3.992,2.41-12.018,4.472-23.929,6.143-15.962,2.241-37,3.476-59.237,3.476-6.153,0-12.207-.1-18.094-.282a91.457,91.457,0,0,1-11.346,26.411A92.548,92.548,0,0,1,967.663,1249.655Z" fill="none"/><path d="M995.586,1201.047c5.447.155,11.229.243,17.4.243,56.467,0,82.392-7.04,83.156-10.631l-.014-44.607c-4,2.4-12.016,4.461-23.905,6.129-15.962,2.241-37,3.476-59.237,3.476-9.007,0-17.809-.206-26.164-.6C996.343,1165.912,999.348,1182.939,995.586,1201.047Z" fill="none"/><path d="M929.791,1146.023l0,7.662a70.111,70.111,0,0,1,7.993-4.573A32.5,32.5,0,0,1,929.791,1146.023Z" fill="none"/><path d="M1096.124,1141.995l-.006-10.686-.23.138c-.112.064-.226.126-.34.187-.088.048-.182.1-.28.15l-2.836,1.234c-.254.1-.513.187-.775.279l-5.337,1.544c-.3.075-.617.149-.93.223l-5.516,1.138-7.654,1.228a387.878,387.878,0,0,1-38.868,3.121c-6.8.24-13.8.351-20.891.354-22.009,0-42.846-1.222-58.743-3.446-11.912-1.666-19.939-3.724-23.933-6.129l0,9.536.027,1.006c.3,1.422,4.434,3.356,12.675,5.19,13.108-5.092,26.358-4.953,36.9,1.653a33.362,33.362,0,0,1,4.2,3.131c8.683.452,18.46.719,29.4.719C1069.13,1152.565,1095.08,1145.6,1096.124,1141.995Z" fill="none"/><path d="M954,1135.466c15.808,2.211,36.548,3.427,58.447,3.427,7.069,0,14.065-.113,20.838-.353a386.053,386.053,0,0,0,38.658-3.1l12.02-2.112.973-.222c.305-.071.61-.143.911-.217L1091,1131.4c.247-.086.492-.173.732-.262l2.857-1.267c.1-.056.2-.109.3-.163l.224-.135q.217-.132.419-.268l.441-.318.421-.355.808-.768.026-.85a2.081,2.081,0,0,0-.6-1.171l-.062-.068-1.511.969-2.312,1.063-3.681,1.238-4.526,1.152-1.008.221c-.317.068-.641.136-.969.2q-2.724.558-5.74,1.053l-12.4,1.667-17.213,1.476-26.689,1.006-7.536.05-26.446-.621-22.62-1.658-11.043-1.347-3.649-.561c-2.089-.343-4-.693-5.751-1.051l-8.44-2.173-3.292-1.3-2.057-1.185-.284-.207-.06.071a2.023,2.023,0,0,0-.6,1.217l-.04.8.776.755C932.132,1131.19,940.839,1133.625,954,1135.466Z" fill="#c98919"/><path d="M1096.478,1123.139c-9.07-5.8-42.935-9.8-83.5-9.8-40.59,0-74.476,4.012-83.517,9.817h0l-1.41.967-.981,1.048a1.839,1.839,0,0,0-.237.453l-.148.377.014,29.839c.335-.245.67-.492,1.006-.73l0-8.574L927.7,1127h.041a2.984,2.984,0,0,1,.856-1.84l-.026-.024.454-.4,0,0,.357-.316.014.012c7.616-5.865,42.434-10.089,83.588-10.089s75.972,4.224,83.589,10.089l.014-.012.356.316,0,0,.453.4-.026.024a3.032,3.032,0,0,1,.852,1.758h.095l-.117.579.007,14.371h.026a2.329,2.329,0,0,1-.026.313l0,4.348.021,44.065h0c0,.017,0,.035,0,.051l.031,63.4c0,4.577-13.741,7.529-25.27,9.2-16.023,2.323-37.323,3.608-59.976,3.619h-.29c-22.546,0-43.732-1.263-59.69-3.561-1.494-.215-3.025-.452-4.559-.711-.545.251-1.09.5-1.636.735,1.847.33,3.849.655,6.051.972,16,2.3,37.247,3.572,59.834,3.572h.291c22.7-.011,44.048-1.3,60.12-3.63,26.134-3.789,26.132-8.612,26.131-10.2l-.031-63.357,0-.061-.026-48.382a2.943,2.943,0,0,0,.026-.38l-.033-14.27-.053-1.065-.139-.621a3.9,3.9,0,0,0-.292-.61A7.514,7.514,0,0,0,1096.478,1123.139Z" fill="#c98919"/><path d="M1097.123,1241.085a1.333,1.333,0,0,0,.033-.27h.021l-.023-48.053c-3.538,3.452-15.2,5.763-25.074,7.149-15.919,2.235-36.907,3.465-59.1,3.465-6.067,0-12.038-.095-17.847-.275-.078.333-.164.666-.247,1,5.887.184,11.941.282,18.094.282,22.238,0,43.275-1.235,59.237-3.476,11.911-1.671,19.937-3.733,23.929-6.143l-.01,46.112c-.764,3.591-26.689,10.631-83.156,10.631-18.239,0-33.272-.737-45.32-1.852-.328.3-.654.608-.985.9,12.783,1.208,28.406,1.957,46.3,1.957C1063.454,1252.514,1095.954,1246.581,1097.123,1241.085Z" fill="#c98919"/><path d="M1097.123,1190.868a1.4,1.4,0,0,0,.03-.225l-.022-44.11v-2.474c-3.565,3.439-15.2,5.743-25.051,7.126-15.919,2.235-36.907,3.465-59.1,3.465-9.362,0-18.5-.221-27.147-.642.332.347.666.692.983,1.053,8.355.39,17.157.6,26.164.6,22.238,0,43.275-1.235,59.237-3.476,11.889-1.668,19.906-3.726,23.905-6.129l.014,44.607c-.764,3.591-26.689,10.631-83.156,10.631-6.168,0-11.95-.088-17.4-.243-.069.332-.145.664-.218,1q8.387.246,17.615.254C1063.454,1202.3,1095.954,1196.364,1097.123,1190.868Z" fill="#c98919"/><path d="M929.791,1146.023a32.5,32.5,0,0,0,8,3.089c.475-.231.951-.45,1.427-.667-4.722-1.2-8.644-2.667-10.431-4.435v2.523l0,7.824c.334-.228.67-.45,1.006-.672Z" fill="#c98919"/><path d="M930.525,1125.334c.07.047.143.094.218.14s.128.081.2.121l.242.141c.069.039.139.079.211.118q.131.07.267.141c.074.039.149.077.226.115.1.048.193.095.293.142l.239.113c.1.047.21.095.318.142l.252.11c.113.047.228.1.345.142.087.036.174.072.264.107.121.048.245.1.37.143.092.035.183.07.277.1.129.048.263.1.4.143l.287.1.427.144.291.1c.15.049.3.1.458.146l.3.093c.16.05.324.1.488.147.1.03.2.06.3.089l.526.15.3.084.564.151.3.079c.2.052.4.1.609.156l.284.071.666.162.261.063.742.171.217.05.821.18.175.038q.47.1.953.2l.071.015c1.75.358,3.633.7,5.637,1.031l.074.012q.559.092,1.131.182l.2.031c.342.054.685.107,1.033.159l.271.04c.329.049.658.1.993.146.1.016.211.03.316.045l.968.137.382.052.933.127.415.054.925.12.453.057.91.113.484.058.906.108.509.058.906.1.531.058.9.1.563.059.9.094.577.058.909.091.59.057q.456.045.915.087l.61.057.912.083.632.056.923.08.63.053.937.077.652.053.931.073.673.051.938.07.683.05.934.066.708.049.943.063.707.046.955.06.725.045.947.056.741.043.962.054.746.04c.32.018.641.034.962.051l.759.038c.321.017.644.032.966.048l.777.036.958.044.8.035.958.04.808.033.974.037.8.03,1,.035.8.027.989.031.82.026.99.028.827.022,1,.025.828.02,1.009.022.83.017,1.032.019.818.015,1.027.015.837.012,1.071.013.793.009,1.174.009.7.006,1.321.007.565,0q.946,0,1.9,0t1.9,0l.566,0,1.321-.007.7-.006,1.174-.009.793-.009,1.071-.013.837-.012,1.027-.015.818-.015,1.032-.019.83-.017,1.009-.022.829-.02,1-.025.827-.022.99-.028.82-.026.989-.031.8-.027,1-.035.8-.03.974-.037.808-.033.958-.04.8-.035.958-.044.776-.036c.323-.016.646-.031.967-.048l.759-.038c.321-.017.642-.033.962-.051l.747-.04.961-.054.741-.043.947-.056.724-.045.957-.06.706-.046.944-.063.706-.049.935-.066.683-.05.938-.07.672-.051.933-.073.65-.053.938-.077.629-.053.925-.08.631-.056.912-.083.61-.057c.307-.028.612-.058.916-.087l.588-.057.91-.091.577-.058.9-.094.561-.059.9-.1.531-.058.908-.1.507-.058.907-.108.483-.058.911-.114.452-.056.926-.12.414-.054.935-.127.379-.052c.326-.045.648-.091.969-.137.1-.015.212-.029.316-.045.335-.048.666-.1,1-.146l.268-.04c.348-.052.692-.106,1.034-.159l.2-.031q.571-.09,1.131-.182l.074-.012c2-.328,3.887-.673,5.638-1.031l.063-.014c.325-.066.646-.133.961-.2l.171-.037c.277-.06.553-.121.824-.182l.217-.049.742-.171.261-.063.666-.162c.1-.023.189-.047.283-.071l.611-.156.293-.078c.191-.051.382-.1.567-.152l.3-.084.527-.15c.1-.029.2-.059.3-.089.164-.049.328-.1.488-.147l.3-.093c.155-.049.309-.1.459-.146l.29-.1.429-.145.285-.1.4-.144.276-.1c.125-.047.249-.1.37-.143.09-.035.177-.071.265-.107l.344-.142.253-.11.317-.142.24-.113c.1-.047.2-.094.292-.142.077-.038.152-.076.226-.115q.137-.07.267-.141c.072-.039.142-.079.211-.118s.164-.094.242-.141.132-.08.2-.121.147-.093.217-.14.121-.082.179-.123l.1-.072c-7.681-5.568-42.744-9.717-82.737-9.717s-75.056,4.149-82.736,9.717l.1.072C930.4,1125.252,930.464,1125.293,930.525,1125.334Zm82.458-8.906c37.343,0,71.059,3.69,80.793,8.709l-.422.208-3.79,1.44-6.461,1.66c-.313.067-.63.134-1.015.213-1.726.354-3.61.7-5.671,1.036l-2.355.37-12.216,1.523-20.794,1.565-28.069.7-7.513-.049-26.584-1-17.121-1.467-12.288-1.654c-1.989-.326-3.873-.67-5.669-1.039l-.942-.2-4.583-1.109-3.694-1.168-2.4-1.032C941.925,1120.118,975.64,1116.428,1012.983,1116.428Z" fill="#c98919"/><path d="M929.816,1141.872l-.027-1.006,0-9.536c3.994,2.405,12.021,4.463,23.933,6.129,15.9,2.224,36.734,3.446,58.743,3.446,7.1,0,14.1-.114,20.891-.354a387.878,387.878,0,0,0,38.868-3.121l7.654-1.228,5.516-1.138c.313-.074.625-.148.93-.223l5.337-1.544c.262-.092.521-.184.775-.279l2.836-1.234c.1-.05.192-.1.28-.15.114-.061.228-.123.34-.187l.23-.138.006,10.686c-1.044,3.609-26.994,10.57-83.141,10.57-10.936,0-20.713-.267-29.4-.719q.587.512,1.149,1.048c8.615.432,18.057.677,28.247.677,50.471,0,82.971-5.933,84.14-11.429l.006-.038-.006-12.784c-.041.039-.089.077-.132.117-.063.057-.126.115-.194.172s-.141.112-.213.168-.144.115-.221.171-.182.125-.274.187q-.222.148-.462.3l-.243.146c-.1.058-.208.115-.313.173-.087.047-.173.094-.263.14-.109.057-.222.114-.336.17-.093.046-.188.092-.284.137q-.174.082-.355.165l-.307.135c-.123.053-.247.107-.375.16l-.325.132-.392.156-.354.132c-.246.091-.5.181-.754.27-.128.045-.254.09-.385.134l-.422.138-.4.13c-.143.045-.288.089-.433.133s-.281.086-.424.128l-.44.129-.447.126-.442.123-.484.129-.429.112c-.191.05-.386.1-.58.147l-.354.088c-.3.075-.612.148-.922.221l-.392.089-.59.134-.424.093-.579.125-.428.09-.591.122-.423.085-.631.124-.386.074-.736.139-.289.054q-.513.094-1.028.185l-.223.039-.816.14-.358.061-.686.113c-.129.022-.259.042-.389.063q-.328.054-.657.1l-.386.061-.682.1-.348.053c-.249.038-.5.074-.746.111l-.277.04c-.34.05-.679.1-1.015.145a385.531,385.531,0,0,1-38.764,3.112c-6.581.233-13.4.354-20.333.354h-.019c-22.2.019-43.192-1.21-59.107-3.437-9.872-1.381-21.535-3.684-25.08-7.132l.006,12.542h.027a1.345,1.345,0,0,0,.033.27c.4,1.9,4.571,3.858,11.934,5.6.57-.242,1.142-.459,1.714-.681C934.25,1145.228,930.118,1143.294,929.816,1141.872Z" fill="#c98919"/><path d="M1012.727,1265.793h.289c22.6-.011,43.848-1.293,59.822-3.608,22.592-3.275,24.346-7.053,24.346-8.132l-.006-11.1c-3.509,3.464-15.2,5.782-25.1,7.171-15.919,2.235-36.907,3.465-59.1,3.465-17.111,0-33.495-.734-47.4-2.094-.355.3-.708.61-1.065.906,14.144,1.424,30.926,2.194,48.468,2.194,22.239,0,43.276-1.234,59.237-3.474,11.935-1.676,19.969-3.743,23.953-6.158l.005,9.087c0,.037-.3,3.774-23.484,7.135-15.925,2.309-37.12,3.586-59.678,3.6h-.289c-22.444,0-43.537-1.257-59.393-3.539-.552-.08-1.079-.16-1.606-.24-.514.272-1.03.522-1.546.778.964.153,1.956.306,3.009.458C969.1,1264.533,990.232,1265.793,1012.727,1265.793Z" fill="#c98919"/><path d="M928.785,1146.533v-2.523c1.787,1.768,5.709,3.235,10.431,4.435.521-.237,1.04-.481,1.562-.7-7.363-1.743-11.529-3.7-11.934-5.6a1.345,1.345,0,0,1-.033-.27h-.027l-.006-12.542c3.545,3.448,15.208,5.751,25.08,7.132,15.915,2.227,36.9,3.456,59.107,3.437h.019c6.935,0,13.752-.121,20.333-.354a385.531,385.531,0,0,0,38.764-3.112c.336-.047.675-.095,1.015-.145l.277-.04c.248-.037.5-.073.746-.111l.348-.053.682-.1.386-.061q.328-.051.657-.1c.13-.021.26-.041.389-.063l.686-.113.358-.061.816-.14.223-.039q.515-.091,1.028-.185l.289-.054.736-.139.386-.074.631-.124.423-.085.591-.122.428-.09.579-.125.424-.093.59-.134.392-.089c.31-.073.618-.146.922-.221l.354-.088c.194-.049.389-.1.58-.147l.429-.112.484-.129.442-.123.447-.126.44-.129c.143-.042.284-.085.424-.128s.29-.088.433-.133l.4-.13.422-.138c.131-.044.257-.089.385-.134.256-.089.508-.179.754-.27l.354-.132.392-.156.325-.132c.128-.053.252-.107.375-.16l.307-.135q.181-.082.355-.165c.1-.045.191-.091.284-.137.114-.056.227-.113.336-.17.09-.046.176-.093.263-.14.1-.058.212-.115.313-.173l.243-.146q.24-.147.462-.3c.092-.062.187-.124.274-.187s.148-.114.221-.171.145-.111.213-.168.131-.115.194-.172c.043-.04.091-.078.132-.117l.006,12.784-.006.038c-1.169,5.5-33.669,11.429-84.14,11.429-10.19,0-19.632-.245-28.247-.677.377.361.74.736,1.1,1.114,8.643.421,17.785.642,27.147.642,22.19,0,43.178-1.23,59.1-3.465,9.854-1.383,21.486-3.687,25.051-7.126v2.474l.022,44.11a1.4,1.4,0,0,1-.03.225c-1.169,5.5-33.669,11.429-84.14,11.429q-9.222,0-17.615-.254c-.078.353-.149.705-.232,1.058,5.809.18,11.78.275,17.847.275,22.19,0,43.178-1.23,59.1-3.465,9.875-1.386,21.536-3.7,25.074-7.149l.023,48.053h-.021a1.333,1.333,0,0,1-.033.27c-1.169,5.5-33.669,11.429-84.14,11.429-17.9,0-33.522-.749-46.3-1.957-.363.322-.732.629-1.1.942,13.908,1.36,30.292,2.094,47.4,2.094,22.19,0,43.178-1.23,59.1-3.465,9.9-1.389,21.589-3.707,25.1-7.171l.006,11.1c0,1.079-1.754,4.857-24.346,8.132-15.974,2.315-37.219,3.6-59.822,3.608h-.289c-22.495,0-43.628-1.26-59.536-3.55-1.053-.152-2.045-.305-3.009-.458q-.851.422-1.7.815c1.534.259,3.065.5,4.559.711,15.958,2.3,37.144,3.561,59.69,3.561h.29c22.653-.011,43.953-1.3,59.976-3.619,11.529-1.672,25.272-4.624,25.27-9.2l-.031-63.4c0-.016,0-.034,0-.051h0l-.021-44.065,0-4.348a2.329,2.329,0,0,0,.026-.313h-.026l-.007-14.371.117-.579h-.095a3.032,3.032,0,0,0-.852-1.758l.026-.024-.453-.4,0,0-.356-.316-.014.012c-7.617-5.865-42.435-10.089-83.589-10.089s-75.972,4.224-83.588,10.089l-.014-.012-.357.316,0,0-.454.4.026.024a2.984,2.984,0,0,0-.856,1.84H927.7l.009,19.529,0,8.574c.359-.255.719-.5,1.079-.75Zm84.2-31.111c39.993,0,75.056,4.149,82.737,9.717l-.1.072c-.058.041-.118.082-.179.123s-.143.094-.217.14-.129.081-.2.121-.159.094-.242.141-.139.079-.211.118-.176.094-.267.141c-.074.039-.149.077-.226.115-.095.048-.193.095-.292.142l-.24.113-.317.142-.253.11-.344.142c-.088.036-.175.072-.265.107-.121.048-.245.1-.37.143l-.276.1-.4.144-.285.1-.429.145-.29.1c-.15.049-.3.1-.459.146l-.3.093c-.16.05-.324.1-.488.147-.1.03-.2.06-.3.089l-.527.15-.3.084c-.185.051-.376.1-.567.152l-.293.078-.611.156c-.094.024-.187.048-.283.071l-.666.162-.261.063-.742.171-.217.049c-.271.061-.547.122-.824.182l-.171.037c-.315.068-.636.135-.961.2l-.063.014c-1.751.358-3.634.7-5.638,1.031l-.074.012q-.559.092-1.131.182l-.2.031c-.342.053-.686.107-1.034.159l-.268.04c-.33.049-.661.1-1,.146-.1.016-.211.03-.316.045-.321.046-.643.092-.969.137l-.379.052-.935.127-.414.054-.926.12-.452.056-.911.114-.483.058-.907.108-.507.058-.908.1-.531.058-.9.1-.561.059-.9.094-.577.058-.91.091-.588.057c-.3.029-.609.059-.916.087l-.61.057-.912.083-.631.056-.925.08-.629.053-.938.077-.65.053-.933.073-.672.051-.938.07-.683.05-.935.066-.706.049-.944.063-.706.046-.957.06-.724.045-.947.056-.741.043-.961.054-.747.04c-.32.018-.641.034-.962.051l-.759.038c-.321.017-.644.032-.967.048l-.776.036-.958.044-.8.035-.958.04-.808.033-.974.037-.8.03-1,.035-.8.027-.989.031-.82.026-.99.028-.827.022-1,.025-.829.02-1.009.022-.83.017-1.032.019-.818.015-1.027.015-.837.012-1.071.013-.793.009-1.174.009-.7.006-1.321.007-.566,0q-.945,0-1.9,0t-1.9,0l-.565,0-1.321-.007-.7-.006-1.174-.009-.793-.009-1.071-.013-.837-.012-1.027-.015-.818-.015-1.032-.019-.83-.017-1.009-.022-.828-.02-1-.025-.827-.022-.99-.028-.82-.026-.989-.031-.8-.027-1-.035-.8-.03-.974-.037-.808-.033-.958-.04-.8-.035-.958-.044-.777-.036c-.322-.016-.645-.031-.966-.048l-.759-.038c-.321-.017-.642-.033-.962-.051l-.746-.04-.962-.054-.741-.043-.947-.056-.725-.045-.955-.06-.707-.046-.943-.063-.708-.049-.934-.066-.683-.05-.938-.07-.673-.051-.931-.073-.652-.053-.937-.077-.63-.053-.923-.08-.632-.056-.912-.083-.61-.057q-.459-.042-.915-.087l-.59-.057-.909-.091-.577-.058-.9-.094-.563-.059-.9-.1-.531-.058-.906-.1-.509-.058-.906-.108-.484-.058-.91-.113-.453-.057-.925-.12-.415-.054-.933-.127-.382-.052-.968-.137c-.1-.015-.211-.029-.316-.045-.335-.048-.664-.1-.993-.146l-.271-.04c-.348-.052-.691-.1-1.033-.159l-.2-.031q-.571-.09-1.131-.182l-.074-.012c-2-.328-3.887-.673-5.637-1.031l-.071-.015q-.483-.1-.953-.2l-.175-.038-.821-.18-.217-.05-.742-.171-.261-.063-.666-.162-.284-.071c-.205-.052-.41-.1-.609-.156l-.3-.079-.564-.151-.3-.084-.526-.15c-.1-.029-.2-.059-.3-.089-.164-.049-.328-.1-.488-.147l-.3-.093c-.154-.049-.308-.1-.458-.146l-.291-.1-.427-.144-.287-.1c-.133-.047-.267-.095-.4-.143-.094-.034-.185-.069-.277-.1-.125-.047-.249-.1-.37-.143-.09-.035-.177-.071-.264-.107-.117-.047-.232-.1-.345-.142l-.252-.11c-.108-.047-.214-.095-.318-.142l-.239-.113c-.1-.047-.2-.094-.293-.142-.077-.038-.152-.076-.226-.115q-.137-.07-.267-.141c-.072-.039-.142-.079-.211-.118l-.242-.141c-.067-.04-.132-.08-.2-.121s-.148-.093-.218-.14-.121-.082-.179-.123l-.1-.072C937.927,1119.571,972.99,1115.422,1012.983,1115.422Zm-84.24,11.634a2.023,2.023,0,0,1,.6-1.217l.06-.071.284.207,2.057,1.185,3.292,1.3,8.44,2.173c1.752.358,3.662.708,5.751,1.051l3.649.561,11.043,1.347,22.62,1.658,26.446.621,7.536-.05,26.689-1.006,17.213-1.476,12.4-1.667q3.021-.5,5.74-1.053c.328-.067.652-.135.969-.2l1.008-.221,4.526-1.152,3.681-1.238,2.312-1.063,1.511-.969.062.068a2.081,2.081,0,0,1,.6,1.171l-.026.85-.808.768-.421.355-.441.318q-.2.136-.419.268l-.224.135c-.093.054-.192.107-.3.163l-2.857,1.267c-.24.089-.485.176-.732.262l-5.155,1.491c-.3.074-.606.146-.911.217l-.973.222-12.02,2.112a386.053,386.053,0,0,1-38.658,3.1c-6.773.24-13.769.35-20.838.353-21.9,0-42.639-1.216-58.447-3.427-13.157-1.841-21.864-4.276-24.517-6.857l-.776-.755Z" fill="#c98919"/></g></svg>